<?xml version="1.0" encoding="utf-8"?>
<!-- Generator: Adobe Illustrator 16.0.4, SVG Export Plug-In . SVG Version: 6.00 Build 0)  -->
<!DOCTYPE svg PUBLIC "-//W3C//DTD SVG 1.1//EN" "http://www.w3.org/Graphics/SVG/1.1/DTD/svg11.dtd">
<svg version="1.1" id="Layer_1" xmlns="http://www.w3.org/2000/svg" xmlns:xlink="http://www.w3.org/1999/xlink" x="0px" y="0px"
	 width="1000px" height="1000px" viewBox="0 0 1000 1000" enable-background="new 0 0 1000 1000" xml:space="preserve">
<g>
	<path class="title-top" d="M197.561,53.188c32.854-8.605,58.944-25.392,94.217-22.005c0.145,16.254,0.674,26.818,1.344,45.85 c-9.709,2.383-14.556,3.619-24.67,3.858c0.915,30.386-0.039,57.978-3.002,88.083c-17.355,1.397-24.489,4.451-40.202,8.56 c-2.576-29.823-4.649-58.77-5.039-88.733c-13.659,2.836-19.841,2.852-31.875,3.524C192.095,76.482,193.795,68.966,197.561,53.188z" />
	<path class="title-top" d="M401.746,30.002c9.122,4.078,17.045,9.914,22.939,17.763c5.894,7.851,9.765,16.989,11.956,26.816 c2.193,9.831,2.84,19.625,2.71,28.361c-0.13,8.739-1.246,16.697-4.125,24.66c-2.877,7.966-7.415,15.251-13.774,21.983 c-6.358,6.733-14.626,12.408-23.88,16.347c-9.255,3.939-19.378,2.922-30.697-1.035c-11.324-3.959-21.466-9.302-30.605-13.641 c-9.141-4.341-17.019-7.067-23.051-10.611c-6.033-3.542-10.304-7.367-13.022-12.763c-2.718-5.394-3.853-11.851-3.897-20.655 c-0.045-8.801,1.137-19.308,3.891-29.715c2.754-10.405,7.04-19.802,13.018-27.296c5.977-7.492,13.578-12.298,22.944-16.427 c9.364-4.125,20.487-6.91,32.973-7.946C381.607,24.809,392.623,25.923,401.746,30.002z M345.596,76.226 c-5.556,5.861-8.258,12.747-8.234,20.738c0.024,7.992,2.761,14.216,8.182,20.038c5.418,5.823,12.495,9.903,21.271,11.832 c8.772,1.927,15.861,0.369,21.287-5.128c5.424-5.495,8.117-12.538,8.192-20.769c0.076-8.229-2.13-16.514-7.171-23.801 c-5.04-7.285-12.176-11.048-21.337-11.4C358.623,67.382,351.148,70.367,345.596,76.226z"/>
	<path class="title-top" d="M452.923,169.125c-2.493-48.604-1.122-93.377,3.204-141.939c29.316,0,41.2-4.919,68.451-7.788 c3.863,14.518,5.635,22.081,9.537,37.021c-14.789,0.406-22.677,4.052-38.073,8.721c-0.578,7.241-0.87,10.863-1.25,17.832 c10.832-3.749,16.37-6.154,26.917-8.623c-0.132,14.29,0.034,21.186-1.407,35.654c-10.298,2.447-15.564,4.876-25.992,8.637 c-0.096,16.713-0.25,24.917-0.233,41.792C479.008,166.799,471.234,167.107,452.923,169.125z"/>
	<path class="title-top" d="M531.105,155.394c4.718-46.031,6.975-90.346,6.975-136.639c28.008-1.459,43.017-15.815,69.906-14.012 c3.732,15.277,5.539,23.007,9.098,38.562c-13.436-1.993-21.267-1.999-35.948,2.057c0,6.441,0,9.658,0,16.099 c9.921-2.74,15.096-3.603,24.74-3.168c0,14.107,0.129,20.843-1.143,37.297c-9.663-0.447-14.803,0.45-24.812,2.862 c-1.711,19.296-3.549,30.148-4.208,48.156C557.826,150.385,548.497,153.767,531.105,155.394z"/>
	<path class="title-top" d="M615.643,147.236c2.836-47.181,4.145-93.809,4.145-141.067c27.381,4.573,40.711,8.751,72.314,3.356 c3.551,13.57,5.239,20.812,8.583,35.412c-16.97,1.925-25.893,3.665-41.865,2.935c0,5.213,0,7.821,0,13.035 c10.418,0.476,16.058-0.039,27.038-0.908c-0.064,13.432-0.018,18.979-0.095,34.167c-10.989,0.667-16.626,1.186-27.024,0.723 c-0.076,6.504-0.129,9.966-0.253,16.944c17.229,0.855,26.816-0.773,45.097-2.052c-3.533,18.225-5.373,28.434-9.108,44.544 C668.007,158.353,641.042,155.396,615.643,147.236z"/>
	<path class="title-top" d="M711.985,152.901c-0.427-48.936-0.351-97.792,0.21-146.723C737.875,4.612,763.511,2.4,789.123,0 c3.337,15.087,4.642,26.158,7.448,46.352c-16.433-0.168-24.792-1.289-41.371-2.494c-0.149,6.327-0.229,9.495-0.347,15.583 c10.759,1.583,16.154,2.699,26.9,3.974c-0.417,17.107-0.611,23.46,0.025,35.419c-10.769-1.402-16.189-2.593-26.987-4.313 c0.143,5.973,0.248,9.025,0.479,15.143c18.015,1.099,27.199,1.632,44.772,2.279c-2.283,11.616-3.092,17.013-6.237,30.84 C766.637,147.191,739.669,153.225,711.985,152.901z"/>
</g>
<g>
	<path class="title-bottom" d="M92.97,179.825c15.396,1.415,22.847,2.48,38.649,2.529c11.109,44.201,16.229,81.468,17.728,127.319 c-17.207,1.214-25.958,2.385-42.742-1.243c-1.824-25.892,0.654-39.839-1.229-65.179c-0.167-0.021-0.251-0.032-0.417-0.052 c-11.554,25.154-19.943,35.729-30.099,60.311c-10.125-27.248-12.544-37.424-23.845-59.158c-0.183,0.062-0.278,0.09-0.46,0.151 c-3.694,25.345-5.51,32.759-8.54,57.513c-16.789,1.775-25.373,4.303-42.014,2.983c0.85-39.223,7.226-77.738,12.501-116.535 c17.048-3.427,26.464-7.446,43-9.56c8.302,17.603,13.654,23.312,22.81,39.896C84.42,203.035,85.979,197.933,92.97,179.825z"/>
	<path class="title-bottom" d="M205.664,183.363c-1.785,42.349-4.314,83.969-4.308,126.448c-17.222,1.227-25.814,1.823-43.011,3.028 c2.58-43.684,3.019-85.383,1.052-129.037C178.422,184.15,188.758,185.184,205.664,183.363z"/>
	<path class="title-bottom" d="M217.625,309.811c0-41.914,1.44-83.256,3.398-125.093c15.858-3.797,22.842-7.477,39.694-9.398 c0.043,31.923-0.039,63.844-0.04,95.768c18.809,0,28.213,0,47.021,0c-3.65,15.486-5.479,23.237-9.128,38.723 C271.588,309.811,244.607,309.811,217.625,309.811z"/>
	<path class="title-bottom" d="M312.664,312.874c-0.012-48.985,0.373-97.938,0.977-146.918c17.6-5.993,26.119-5.54,42.904-1.223 c-0.109,24.148,0.375,38.734,0.494,63.948c0.171-0.042,0.257-0.062,0.428-0.103c9.371-27.444,12.458-36.292,20.91-56.438 c18.08,6.44,27.383,4.912,47.529,4.986c-11.469,23.611-14.467,25.512-24.225,46.124c11.842,27.102,19.657,55.775,29.202,83.719 c-18.366-1.22-27.583-1.648-47.672,1.341c-10.208-27.77-14.826-44.001-25.729-69.061c-0.173,0.052-0.256,0.077-0.429,0.129 c-0.08,27.082-0.544,42.048-0.64,68.753C338.352,311.445,329.884,311.647,312.664,312.874z"/>
	<path class="title-bottom" d="M516.913,205.767c-4.778-0.826-9.713-0.996-14.821-0.689c-5.111,0.307-9.594,1.042-13.539,1.983 c-4.967,1.187-8.968,2.334-12.002,3.577c-3.037,1.242-4.705,3.318-4.934,6.449c-0.119,1.634,0.841,2.985,2.884,3.968 c2.043,0.98,5.627,2.112,10.733,3.183c5.638,1.181,10.606,2.233,14.752,3.325c4.144,1.09,8.301,2.881,12.401,5.387 c4.103,2.505,7.427,5.938,9.861,10.718c2.434,4.784,3.515,10.951,3.269,18.398c-0.554,16.685-6.531,30.13-17.542,38.667 c-11.015,8.542-26.134,12.21-45.523,12.142c-5.807-0.021-10.744-0.677-14.942-1.647c-4.2-0.973-9.738-2.591-16.62-4.863 c-0.45-0.141-0.677-0.216-1.127-0.357c0.134-15.697,0.416-24.6,0.744-41.254c5.444,2.897,10.808,5.481,16.199,7.398 c5.39,1.918,10.626,3,15.749,3.131c11.03,0.283,16.869-3.243,16.897-8.098c0.013-2.096-1.17-3.643-3.535-4.692 c-2.369-1.05-6.297-2.293-11.579-4.057c-5.521-1.844-9.957-4.56-13.431-7.034c-3.474-2.475-6.849-5.854-10.165-9.945 c-3.316-4.089-5.936-8.929-8.01-13.906c-2.077-4.976-3.204-10.054-3.281-15.485c-0.168-11.727,4.754-20.238,15.409-27.874 c10.652-7.636,24.517-10.526,38.634-14.03c5.454-1.354,10.811-2.946,16.345-4.217c5.531-1.271,10.591-2.038,15.299-2.012 C515.35,179.496,516.012,188.632,516.913,205.767z"/>
	<path class="title-bottom" d="M536.354,312.54c1.355-50.688,0.726-100.111-1.96-150.737c17.466-2.241,26.778-5.462,44.587-8.863 c-0.104,19.587,0.27,37.116,0.545,63.525c10.116,0.917,15.051,1.249,25.773,0.636c-0.13-25.296-0.351-41.888-0.271-61.606 c17.044,0.655,25.326,4.201,42.273,6.054c3.007,45.76,6.306,91.454,10.075,137.157c-19.09,1.827-30.388,3.344-48.838,4.853 c-0.231-19.973-1.898-26.18-2.855-44.381c-10.868,1.008-15.659,0.352-25.711-0.88c0.629,17.901,1.478,25.503,1.86,44.031 C563.747,306.089,554.02,309.964,536.354,312.54z"/>
	<path class="title-bottom" d="M694.181,164.28c22.139-1.786,32.255-0.27,54.096-3.79c13.794,50.379,28.068,99.304,43.433,149.178 c-17.74,0.19-23.608-3.121-39.763-4.727c-2.671-9.153-4.485-13.183-8.397-20.925c-14.015-1.028-21.903-0.585-35.799-2.163 c-1.327,7.744-2.065,11.78-4.482,20.608c-17.181-2.103-25.028-3.176-45.011-3.78C671.043,254.054,682.019,209.063,694.181,164.28z  M720.51,209.235c-0.154-0.008-0.23-0.015-0.385-0.026c-4.629,21.476-7.461,30.744-9.893,45.064 c7.826,1.607,11.696,2.441,20.436,2.341C724.839,241.895,724.154,231.217,720.51,209.235z"/>
	<path class="title-bottom" d="M791.511,312.729c0.025-53.803,2.167-106.921,4.911-160.668c17.56-2.407,25.406-4.373,41.836-9.081 c0.423,25.1,1.509,50.181,2.268,75.273c0.189-0.077,0.285-0.116,0.476-0.193c6.628-26.058,11.608-52.538,18.934-78.407 c18.245,0.055,28.005,7.025,46.835,15.869c-10.803,19.693-12.837,34.438-21.248,59.433c12.036,29.871,15.005,62.268,23.917,93.07 c-17.863-0.96-25.735-3.04-45.31-1.526c-6.486-25.974-11.107-52.8-22.907-77.067c-0.192,0.082-0.292,0.123-0.485,0.206 c-0.45,25.374-2.575,50.649-3.677,75.994C818.16,309.621,807.882,312.467,791.511,312.729z"/>
	<path class="title-bottom" d="M909.068,307.974c2.979-50.573,3.938-99.884,2.745-150.498c28.77,7.875,58.753,2.625,87.931,0.769 c3.201,14.173,2.572,21.946,2.17,37.226c-16.742,0.096-26.945,0.71-45.311,1.305c-0.422,5.343-0.631,8.019-0.952,13.332 c11.3-0.18,17.16-0.336,28.353-0.483c-2.396,13.847-1.814,19.07-2.509,35.019c-10.713,0-16.077,0-26.79,0 c-0.296,6.811-0.511,10.498-0.965,17.949c17.619,0,26.428,0,44.047,0c-4.676,19.391-7.374,30.562-11.282,46.828 C960.679,309.418,934.841,310.131,909.068,307.974z"/>
</g>
</svg>
