<svg width="450" height="450" viewBox="0 0 450 450"><g transform="translate(22,22)"><g transform="translate(0,0)"><circle r="20.875014591266982" class="background"></circle><circle r="19.913494748760314" class="outer"></circle><circle r="2.0875014591266985" class="inner"></circle></g><g transform="translate(45.11111111111111,0)"><circle r="20.875014591266982" class="background"></circle><circle r="20.022610605282235" class="outer"></circle><circle r="2.952172874970602" class="inner"></circle></g><g transform="translate(90.22222222222221,0)"><circle r="20.875014591266982" class="background"></circle><circle r="20.131135034881087" class="outer"></circle><circle r="3.6156585880816072" class="inner"></circle></g><g transform="translate(135.33333333333331,0)"><circle r="20.875014591266982" class="background"></circle><circle r="20.239077551471382" class="outer"></circle><circle r="4.175002918253397" class="inner"></circle></g><g transform="translate(180.44444444444443,0)"><circle r="20.875014591266982" class="background"></circle><circle r="20.346447416596565" class="outer"></circle><circle r="4.667795165737296" class="inner"></circle></g><g transform="translate(225.55555555555557,0)"><circle r="20.875014591266982" class="background"></circle><circle r="20.453253648703058" class="outer"></circle><circle r="5.113313412175764" class="inner"></circle></g><g transform="translate(270.66666666666663,0)"><circle r="20.875014591266982" class="background"></circle><circle r="20.559505031980734" class="outer"></circle><circle r="5.523009722333708" class="inner"></circle></g><g transform="translate(315.77777777777777,0)"><circle r="20.875014591266982" class="background"></circle><circle r="20.665210124794214" class="outer"></circle><circle r="5.904345749941204" class="inner"></circle></g><g transform="translate(360.88888888888886,0)"><circle r="20.875014591266982" class="background"></circle><circle r="20.77037726772803" class="outer"></circle><circle r="6.262504377380096" class="inner"></circle></g><g transform="translate(0,45.11111111111111)"><circle r="20.875014591266982" class="background"></circle><circle r="18.903129688816076" class="outer"></circle><circle r="2.952172874970602" class="inner"></circle></g><g transform="translate(45.11111111111111,45.11111111111111)"><circle r="20.875014591266982" class="background"></circle><circle r="19.13226689955772" class="outer"></circle><circle r="4.175002918253397" class="inner"></circle></g><g transform="translate(90.22222222222221,45.11111111111111)"><circle r="20.875014591266982" class="background"></circle><circle r="19.358692140731616" class="outer"></circle><circle r="5.113313412175764" class="inner"></circle></g><g transform="translate(135.33333333333331,45.11111111111111)"><circle r="20.875014591266982" class="background"></circle><circle r="19.58249948508454" class="outer"></circle><circle r="5.904345749941204" class="inner"></circle></g><g transform="translate(180.44444444444443,45.11111111111111)"><circle r="20.875014591266982" class="background"></circle><circle r="19.803777689295757" class="outer"></circle><circle r="6.601259229765253" class="inner"></circle></g><g transform="translate(225.55555555555557,45.11111111111111)"><circle r="20.875014591266982" class="background"></circle><circle r="20.022610605282235" class="outer"></circle><circle r="7.2313171761632145" class="inner"></circle></g><g transform="translate(270.66666666666663,45.11111111111111)"><circle r="20.875014591266982" class="background"></circle><circle r="20.239077551471382" class="outer"></circle><circle r="7.8107152544427905" class="inner"></circle></g><g transform="translate(315.77777777777777,45.11111111111111)"><circle r="20.875014591266982" class="background"></circle><circle r="20.453253648703058" class="outer"></circle><circle r="8.350005836506794" class="inner"></circle></g><g transform="translate(360.88888888888886,45.11111111111111)"><circle r="20.875014591266982" class="background"></circle><circle r="20.665210124794214" class="outer"></circle><circle r="8.856518624911807" class="inner"></circle></g><g transform="translate(0,90.22222222222221)"><circle r="20.875014591266982" class="background"></circle><circle r="17.835620285134322" class="outer"></circle><circle r="3.6156585880816072" class="inner"></circle></g><g transform="translate(45.11111111111111,90.22222222222221)"><circle r="20.875014591266982" class="background"></circle><circle r="18.19841580965396" class="outer"></circle><circle r="5.113313412175764" class="inner"></circle></g><g transform="translate(90.22222222222221,90.22222222222221)"><circle r="20.875014591266982" class="background"></circle><circle r="18.554118815148065" class="outer"></circle><circle r="6.262504377380094" class="inner"></circle></g><g transform="translate(135.33333333333331,90.22222222222221)"><circle r="20.875014591266982" class="background"></circle><circle r="18.903129688816076" class="outer"></circle><circle r="7.2313171761632145" class="inner"></circle></g><g transform="translate(180.44444444444443,90.22222222222221)"><circle r="20.875014591266982" class="background"></circle><circle r="19.245812507082366" class="outer"></circle><circle r="8.084858386381384" class="inner"></circle></g><g transform="translate(225.55555555555557,90.22222222222221)"><circle r="20.875014591266982" class="background"></circle><circle r="19.58249948508454" class="outer"></circle><circle r="8.856518624911805" class="inner"></circle></g><g transform="translate(270.66666666666663,90.22222222222221)"><circle r="20.875014591266982" class="background"></circle><circle r="19.913494748760314" class="outer"></circle><circle r="9.56613344977886" class="inner"></circle></g><g transform="translate(315.77777777777777,90.22222222222221)"><circle r="20.875014591266982" class="background"></circle><circle r="20.239077551471382" class="outer"></circle><circle r="10.226626824351529" class="inner"></circle></g><g transform="translate(360.88888888888886,90.22222222222221)"><circle r="20.875014591266982" class="background"></circle><circle r="20.559505031980734" class="outer"></circle><circle r="10.846975764244824" class="inner"></circle></g><g transform="translate(0,135.33333333333331)"><circle r="20.875014591266982" class="background"></circle><circle r="16.700011673013588" class="outer"></circle><circle r="4.175002918253397" class="inner"></circle></g><g transform="translate(45.11111111111111,135.33333333333331)"><circle r="20.875014591266982" class="background"></circle><circle r="17.21397801922073" class="outer"></circle><circle r="5.904345749941204" class="inner"></circle></g><g transform="translate(90.22222222222221,135.33333333333331)"><circle r="20.875014591266982" class="background"></circle><circle r="17.71303724982361" class="outer"></circle><circle r="7.2313171761632145" class="inner"></circle></g><g transform="translate(135.33333333333331,135.33333333333331)"><circle r="20.875014591266982" class="background"></circle><circle r="18.19841580965396" class="outer"></circle><circle r="8.350005836506794" class="inner"></circle></g><g transform="translate(180.44444444444443,135.33333333333331)"><circle r="20.875014591266982" class="background"></circle><circle r="18.671180662949183" class="outer"></circle><circle r="9.335590331474592" class="inner"></circle></g><g transform="translate(225.55555555555557,135.33333333333331)"><circle r="20.875014591266982" class="background"></circle><circle r="19.13226689955772" class="outer"></circle><circle r="10.226626824351529" class="inner"></circle></g><g transform="translate(270.66666666666663,135.33333333333331)"><circle r="20.875014591266982" class="background"></circle><circle r="19.58249948508454" class="outer"></circle><circle r="11.046019444667415" class="inner"></circle></g><g transform="translate(315.77777777777777,135.33333333333331)"><circle r="20.875014591266982" class="background"></circle><circle r="20.022610605282235" class="outer"></circle><circle r="11.808691499882409" class="inner"></circle></g><g transform="translate(360.88888888888886,135.33333333333331)"><circle r="20.875014591266982" class="background"></circle><circle r="20.453253648703058" class="outer"></circle><circle r="12.525008754760192" class="inner"></circle></g><g transform="translate(0,180.44444444444443)"><circle r="20.875014591266982" class="background"></circle><circle r="15.481325162985408" class="outer"></circle><circle r="4.667795165737296" class="inner"></circle></g><g transform="translate(45.11111111111111,180.44444444444443)"><circle r="20.875014591266982" class="background"></circle><circle r="16.16971677276277" class="outer"></circle><circle r="6.601259229765253" class="inner"></circle></g><g transform="translate(90.22222222222221,180.44444444444443)"><circle r="20.875014591266982" class="background"></circle><circle r="16.829974813428752" class="outer"></circle><circle r="8.084858386381384" class="inner"></circle></g><g transform="translate(135.33333333333331,180.44444444444443)"><circle r="20.875014591266982" class="background"></circle><circle r="17.46529026182865" class="outer"></circle><circle r="9.335590331474592" class="inner"></circle></g><g transform="translate(180.44444444444443,180.44444444444443)"><circle r="20.875014591266982" class="background"></circle><circle r="18.078292940408037" class="outer"></circle><circle r="10.437507295633491" class="inner"></circle></g><g transform="translate(225.55555555555557,180.44444444444443)"><circle r="20.875014591266982" class="background"></circle><circle r="18.671180662949183" class="outer"></circle><circle r="11.43371637988641" class="inner"></circle></g><g transform="translate(270.66666666666663,180.44444444444443)"><circle r="20.875014591266982" class="background"></circle><circle r="19.245812507082366" class="outer"></circle><circle r="12.34982517953041" class="inner"></circle></g><g transform="translate(315.77777777777777,180.44444444444443)"><circle r="20.875014591266982" class="background"></circle><circle r="19.803777689295757" class="outer"></circle><circle r="13.202518459530506" class="inner"></circle></g><g transform="translate(360.88888888888886,180.44444444444443)"><circle r="20.875014591266982" class="background"></circle><circle r="20.346447416596565" class="outer"></circle><circle r="14.00338549721189" class="inner"></circle></g><g transform="translate(0,225.55555555555557)"><circle r="20.875014591266982" class="background"></circle><circle r="14.158123736052751" class="outer"></circle><circle r="5.113313412175764" class="inner"></circle></g><g transform="translate(45.11111111111111,225.55555555555557)"><circle r="20.875014591266982" class="background"></circle><circle r="15.05318709697441" class="outer"></circle><circle r="7.2313171761632145" class="inner"></circle></g><g transform="translate(90.22222222222221,225.55555555555557)"><circle r="20.875014591266982" class="background"></circle><circle r="15.897937470868776" class="outer"></circle><circle r="8.856518624911805" class="inner"></circle></g><g transform="translate(135.33333333333331,225.55555555555557)"><circle r="20.875014591266982" class="background"></circle><circle r="16.700011673013588" class="outer"></circle><circle r="10.226626824351529" class="inner"></circle></g><g transform="translate(180.44444444444443,225.55555555555557)"><circle r="20.875014591266982" class="background"></circle><circle r="17.46529026182865" class="outer"></circle><circle r="11.43371637988641" class="inner"></circle></g><g transform="translate(225.55555555555557,225.55555555555557)"><circle r="20.875014591266982" class="background"></circle><circle r="18.19841580965396" class="outer"></circle><circle r="12.525008754760188" class="inner"></circle></g><g transform="translate(270.66666666666663,225.55555555555557)"><circle r="20.875014591266982" class="background"></circle><circle r="18.903129688816076" class="outer"></circle><circle r="13.528555664148184" class="inner"></circle></g><g transform="translate(315.77777777777777,225.55555555555557)"><circle r="20.875014591266982" class="background"></circle><circle r="19.58249948508454" class="outer"></circle><circle r="14.462634352326429" class="inner"></circle></g><g transform="translate(360.88888888888886,225.55555555555557)"><circle r="20.875014591266982" class="background"></circle><circle r="20.239077551471386" class="outer"></circle><circle r="15.339940236527296" class="inner"></circle></g><g transform="translate(0,270.66666666666663)"><circle r="20.875014591266982" class="background"></circle><circle r="12.69777565751874" class="outer"></circle><circle r="5.523009722333708" class="inner"></circle></g><g transform="translate(45.11111111111111,270.66666666666663)"><circle r="20.875014591266982" class="background"></circle><circle r="13.846918178485355" class="outer"></circle><circle r="7.8107152544427905" class="inner"></circle></g><g transform="translate(90.22222222222221,270.66666666666663)"><circle r="20.875014591266982" class="background"></circle><circle r="14.907742264832082" class="outer"></circle><circle r="9.56613344977886" class="inner"></circle></g><g transform="translate(135.33333333333331,270.66666666666663)"><circle r="20.875014591266982" class="background"></circle><circle r="15.897937470868776" class="outer"></circle><circle r="11.046019444667415" class="inner"></circle></g><g transform="translate(180.44444444444443,270.66666666666663)"><circle r="20.875014591266982" class="background"></circle><circle r="16.829974813428752" class="outer"></circle><circle r="12.34982517953041" class="inner"></circle></g><g transform="translate(225.55555555555557,270.66666666666663)"><circle r="20.875014591266982" class="background"></circle><circle r="17.71303724982361" class="outer"></circle><circle r="13.528555664148184" class="inner"></circle></g><g transform="translate(270.66666666666663,270.66666666666663)"><circle r="20.875014591266982" class="background"></circle><circle r="18.554118815148065" class="outer"></circle><circle r="14.612510213886887" class="inner"></circle></g><g transform="translate(315.77777777777777,270.66666666666663)"><circle r="20.875014591266982" class="background"></circle><circle r="19.358692140731616" class="outer"></circle><circle r="15.621430508885581" class="inner"></circle></g><g transform="translate(360.88888888888886,270.66666666666663)"><circle r="20.875014591266982" class="background"></circle><circle r="20.13113503488109" class="outer"></circle><circle r="16.569029167001123" class="inner"></circle></g><g transform="translate(0,315.77777777777777)"><circle r="20.875014591266982" class="background"></circle><circle r="11.046019444667417" class="outer"></circle><circle r="5.904345749941204" class="inner"></circle></g><g transform="translate(45.11111111111111,315.77777777777777)"><circle r="20.875014591266982" class="background"></circle><circle r="12.525008754760188" class="outer"></circle><circle r="8.350005836506794" class="inner"></circle></g><g transform="translate(90.22222222222221,315.77777777777777)"><circle r="20.875014591266982" class="background"></circle><circle r="13.846918178485353" class="outer"></circle><circle r="10.226626824351529" class="inner"></circle></g><g transform="translate(135.33333333333331,315.77777777777777)"><circle r="20.875014591266982" class="background"></circle><circle r="15.05318709697441" class="outer"></circle><circle r="11.808691499882409" class="inner"></circle></g><g transform="translate(180.44444444444443,315.77777777777777)"><circle r="20.875014591266982" class="background"></circle><circle r="16.16971677276277" class="outer"></circle><circle r="13.202518459530506" class="inner"></circle></g><g transform="translate(225.55555555555557,315.77777777777777)"><circle r="20.875014591266982" class="background"></circle><circle r="17.21397801922073" class="outer"></circle><circle r="14.462634352326429" class="inner"></circle></g><g transform="translate(270.66666666666663,315.77777777777777)"><circle r="20.875014591266982" class="background"></circle><circle r="18.19841580965396" class="outer"></circle><circle r="15.621430508885581" class="inner"></circle></g><g transform="translate(315.77777777777777,315.77777777777777)"><circle r="20.875014591266982" class="background"></circle><circle r="19.13226689955772" class="outer"></circle><circle r="16.700011673013588" class="inner"></circle></g><g transform="translate(360.88888888888886,315.77777777777777)"><circle r="20.875014591266982" class="background"></circle><circle r="20.022610605282235" class="outer"></circle><circle r="17.713037249823614" class="inner"></circle></g><g transform="translate(0,360.88888888888886)"><circle r="20.875014591266982" class="background"></circle><circle r="9.09920790482698" class="outer"></circle><circle r="6.262504377380096" class="inner"></circle></g><g transform="translate(45.11111111111111,360.88888888888886)"><circle r="20.875014591266982" class="background"></circle><circle r="11.046019444667417" class="outer"></circle><circle r="8.856518624911807" class="inner"></circle></g><g transform="translate(90.22222222222221,360.88888888888886)"><circle r="20.875014591266982" class="background"></circle><circle r="12.69777565751874" class="outer"></circle><circle r="10.846975764244824" class="inner"></circle></g><g transform="translate(135.33333333333331,360.88888888888886)"><circle r="20.875014591266982" class="background"></circle><circle r="14.158123736052751" class="outer"></circle><circle r="12.525008754760192" class="inner"></circle></g><g transform="translate(180.44444444444443,360.88888888888886)"><circle r="20.875014591266982" class="background"></circle><circle r="15.481325162985408" class="outer"></circle><circle r="14.00338549721189" class="inner"></circle></g><g transform="translate(225.55555555555557,360.88888888888886)"><circle r="20.875014591266982" class="background"></circle><circle r="16.700011673013588" class="outer"></circle><circle r="15.339940236527296" class="inner"></circle></g><g transform="translate(270.66666666666663,360.88888888888886)"><circle r="20.875014591266982" class="background"></circle><circle r="17.835620285134322" class="outer"></circle><circle r="16.569029167001123" class="inner"></circle></g><g transform="translate(315.77777777777777,360.88888888888886)"><circle r="20.875014591266982" class="background"></circle><circle r="18.903129688816076" class="outer"></circle><circle r="17.713037249823614" class="inner"></circle></g><g transform="translate(360.88888888888886,360.88888888888886)"><circle r="20.875014591266982" class="background"></circle><circle r="19.913494748760314" class="outer"></circle><circle r="18.787513132140283" class="inner"></circle></g></g></svg>
