<svg xmlns="http://www.w3.org/2000/svg" fill-rule="evenodd" stroke-linecap="round" stroke-linejoin="round" stroke-miterlimit="1.5" clip-rule="evenodd" viewBox="0 0 500 500">
<title>Escape map creator</title>
<desc>a close up of some hexagons</desc>
  <g transform="matrix(.5572 0 0 .5549 -583.248 -683.124)">
    <g fill="none" stroke="red">
      <path d="M1064.25 1641.61l-33.5 58.02h-67l-33.5-58.02 33.5-58.02h67l33.5 58.02zM1064.25 1873.7l-33.5 58.02h-67l-33.5-58.02 33.5-58.02h67l33.5 58.02zM1064.25 1989.75l-33.5 58.02h-67l-33.5-58.02 33.5-58.02h67l33.5 58.02zM1164.75 1467.55l-33.5 58.02h-67l-33.5-58.02 33.5-58.02h67l33.5 58.02z"/>
      <path d="M1164.75 1583.6l-33.5 58.02h-67l-33.5-58.02 33.5-58.02h67l33.5 58.02zM1164.75 2047.79l-33.5 58.02h-67l-33.5-58.02 33.5-58.02h67l33.5 58.02zM1265.35 1409.52l-33.5 58.02h-67l-33.5-58.02 33.5-58.02h67l33.5 58.02z"/>
      <path d="M1265.35 1525.56l-33.5 58.02h-67l-33.5-58.02 33.5-58.02h67l33.5 58.02zM1265.35 1641.61l-33.5 58.02h-67l-33.5-58.02 33.5-58.02h67l33.5 58.02zM1265.35 1757.66l-33.5 58.02h-67l-33.5-58.02 33.5-58.02h67l33.5 58.02zM1265.35 1873.7l-33.5 58.02h-67l-33.5-58.02 33.5-58.02h67l33.5 58.02zM1265.35 1989.75l-33.5 58.02h-67l-33.5-58.02 33.5-58.02h67l33.5 58.02zM1265.35 2105.8l-33.5 58.02h-67l-33.5-58.02 33.5-58.02h67l33.5 58.02z"/>
      <path d="M1365.85 1467.55l-33.5 58.02h-67l-33.5-58.02 33.5-58.02h67l33.5 58.02zM1365.85 1699.64l-33.5 58.02h-67l-33.5-58.02 33.5-58.02h67l33.5 58.02zM1365.85 1815.69l-33.5 58.02h-67l-33.5-58.02 33.5-58.02h67l33.5 58.02zM1365.85 1931.74l-33.5 58.02h-67l-33.5-58.02 33.5-58.02h67l33.5 58.02zM1365.85 2047.79l-33.5 58.02h-67l-33.5-58.02 33.5-58.02h67l33.5 58.02zM1466.45 1293.47l-33.5 58.02h-67l-33.5-58.02 33.5-58.02h67l33.5 58.02zM1466.45 1409.52l-33.5 58.02h-67l-33.5-58.02 33.5-58.02h67l33.5 58.02z"/>
      <path d="M1466.45 1525.56l-33.5 58.02h-67l-33.5-58.02 33.5-58.02h67l33.5 58.02zM1466.45 1757.66l-33.5 58.02h-67l-33.5-58.02 33.5-58.02h67l33.5 58.02zM1466.45 1989.75l-33.5 58.02h-67l-33.5-58.02 33.5-58.02h67l33.5 58.02zM1566.95 1235.45l-33.5 58.02h-67l-33.5-58.02 33.5-58.02h67l33.5 58.02zM1566.95 2047.79l-33.5 58.02h-67l-33.5-58.02 33.5-58.02h67l33.5 58.02zM1566.95 2163.83l-33.5 58.02h-67l-33.5-58.02 33.5-58.02h67l33.5 58.02zM1667.55 1293.47l-33.5 58.02h-67l-33.5-58.02 33.5-58.02h67l33.5 58.02zM1667.55 1409.52l-33.5 58.02h-67l-33.5-58.02 33.5-58.02h67l33.5 58.02zM1667.55 1525.56l-33.5 58.02h-67l-33.5-58.02 33.5-58.02h67l33.5 58.02zM1667.55 1873.7l-33.5 58.02h-67l-33.5-58.02 33.5-58.02h67l33.5 58.02zM1667.55 1989.75l-33.5 58.02h-67l-33.5-58.02 33.5-58.02h67l33.5 58.02z"/>
      <path d="M1768.05 1467.55l-33.5 58.02h-67l-33.5-58.02 33.5-58.02h67l33.5 58.02zM1768.05 1583.6l-33.5 58.02h-67l-33.5-58.02 33.5-58.02h67l33.5 58.02zM1768.05 1699.64l-33.5 58.02h-67l-33.5-58.02 33.5-58.02h67l33.5 58.02zM1768.05 1815.69l-33.5 58.02h-67l-33.5-58.02 33.5-58.02h67l33.5 58.02zM1768.05 2047.79l-33.5 58.02h-67l-33.5-58.02 33.5-58.02h67l33.5 58.02zM1868.65 1757.66l-33.5 58.02h-67l-33.5-58.02 33.5-58.02h67l33.5 58.02z"/>
      <path d="M1868.65 1873.7l-33.5 58.02h-67l-33.5-58.02 33.5-58.02h67l33.5 58.02zM1868.65 1989.75l-33.5 58.02h-67l-33.5-58.02 33.5-58.02h67l33.5 58.02zM1868.65 2105.8l-33.5 58.02h-67l-33.5-58.02 33.5-58.02h67l33.5 58.02zM1969.15 1699.64l-33.5 58.02h-67l-33.5-58.02 33.5-58.02h67l33.5 58.02z"/>
      <path d="M1969.15 1931.74l-33.5 58.02h-67l-33.5-58.02 33.5-58.02h67l33.5 58.02zM1969.15 2047.79l-33.5 58.02h-67l-33.5-58.02 33.5-58.02h67l33.5 58.02zM2069.75 1757.66l-33.5 58.02h-67l-33.5-58.02 33.5-58.02h67l33.5 58.02z"/>
      <path d="M2069.75 1873.7l-33.5 58.02h-67l-33.5-58.02 33.5-58.02h67l33.5 58.02z"/>
    </g>
    <path fill="#ff2800" d="M1053.531 1622.925l-10.432 18.074 10.432 18.083 10.432-18.083-10.432-18.074zM1064.25 1757.66l-33.5 58.02h-67l-33.5-58.02 33.5-58.02h67l33.5 58.02zM1053.531 1970.925l-10.432 18.074 10.432 18.083 10.432-18.083-10.432-18.074z"/>
    <g fill="#ff2800" transform="translate(1030 1409)">
      <path d="M10.469 39.925L.037 57.999l10.432 18.083 10.432-18.083-10.432-18.074zM123.531 39.925l-10.432 18.074 10.432 18.083 10.432-18.083-10.432-18.074zM23.085 97.921l10.432 18.078h20.87L43.949 97.921H23.085zM79.616.003l10.428 18.073h20.874L100.481.003H79.616zM79.612 116l20.865-.02 10.442-18.063-20.875.005L79.612 116zM23.085 18.078h20.864L54.387.004h-20.87L23.085 18.078z"/>
    </g>
    <text x="-27.004" fill="#ff2800" font-family="Monaco" font-size="30" transform="translate(1097 1583.02)">
      H06
    </text>
    <text x="-27.004" fill="#ff2800" font-family="Monaco" font-size="30" transform="translate(1097 2047.02)">
      H10
    </text>
    <g fill="#ff2800" transform="translate(1030 1989)">
      <path d="M10.469 39.925L.037 57.999l10.432 18.083 10.432-18.083-10.432-18.074zM123.531 39.925l-10.432 18.074 10.432 18.083 10.432-18.083-10.432-18.074zM23.085 97.921l10.432 18.078h20.87L43.949 97.921H23.085zM79.616.003l10.428 18.073h20.874L100.481.003H79.616zM79.612 116l20.865-.02 10.442-18.063-20.875.005L79.612 116zM23.085 18.078h20.864L54.387.004h-20.87L23.085 18.078z"/>
    </g>
    <text x="-27.004" fill="#ff2800" font-family="Monaco" font-size="30" transform="translate(1198 1409.02)">
      I05
    </text>
    <g fill="#ff2800" transform="translate(1131 1351)">
      <path d="M10.469 39.925L.037 57.999l10.432 18.083 10.432-18.083-10.432-18.074zM123.531 39.925l-10.432 18.074 10.432 18.083 10.432-18.083-10.432-18.074zM23.085 97.921l10.432 18.078h20.87L43.949 97.921H23.085zM79.616.003l10.428 18.073h20.874L100.481.003H79.616zM79.612 116l20.865-.02 10.442-18.063-20.875.005L79.612 116zM23.085 18.078h20.864L54.387.004h-20.87L23.085 18.078z"/>
    </g>
    <text x="-27.004" fill="#ff2800" font-family="Monaco" font-size="30" transform="translate(1198 1525.02)">
      I06
    </text>
    <g fill="#ff2800" transform="translate(1131 1467)">
      <path d="M10.469 39.925L.037 57.999l10.432 18.083 10.432-18.083-10.432-18.074zM123.531 39.925l-10.432 18.074 10.432 18.083 10.432-18.083-10.432-18.074zM23.085 97.921l10.432 18.078h20.87L43.949 97.921H23.085zM79.616.003l10.428 18.073h20.874L100.481.003H79.616zM79.612 116l20.865-.02 10.442-18.063-20.875.005L79.612 116zM23.085 18.078h20.864L54.387.004h-20.87L23.085 18.078z"/>
    </g>
    <text x="-27.004" fill="#ff2800" font-family="Monaco" font-size="30" transform="translate(1198 1641.02)">
      I07
    </text>
    <text x="-27.004" fill="#ff2800" font-family="Monaco" font-size="30" transform="translate(1198 1757.02)">
      I08
    </text>
    <text x="-27.004" fill="#ff2800" font-family="Monaco" font-size="30" transform="translate(1198 1873.02)">
      I09
    </text>
    <g fill="#ff2800" transform="translate(1131 1815)">
      <path d="M10.469 39.925L.037 57.999l10.432 18.083 10.432-18.083-10.432-18.074zM123.531 39.925l-10.432 18.074 10.432 18.083 10.432-18.083-10.432-18.074zM23.085 97.921l10.432 18.078h20.87L43.949 97.921H23.085zM79.616.003l10.428 18.073h20.874L100.481.003H79.616zM79.612 116l20.865-.02 10.442-18.063-20.875.005L79.612 116zM23.085 18.078h20.864L54.387.004h-20.87L23.085 18.078z"/>
    </g>
    <text x="-27.004" fill="#ff2800" font-family="Monaco" font-size="30" transform="translate(1198 1989.02)">
      I10
    </text>
    <text x="-27.004" fill="#ff2800" font-family="Monaco" font-size="30" transform="translate(1198 2105.02)">
      I11
    </text>
    <g fill="#ff2800" transform="translate(1131 2047)">
      <path d="M10.469 39.925L.037 57.999l10.432 18.083 10.432-18.083-10.432-18.074zM123.531 39.925l-10.432 18.074 10.432 18.083 10.432-18.083-10.432-18.074zM79.616.003l10.428 18.073h20.874L100.481.003H79.616zM23.085 18.078h20.864L54.387.004h-20.87L23.085 18.078z"/>
    </g>
    <text x="-27.004" fill="#ff2800" font-family="Monaco" font-size="30" transform="translate(1298 1467.02)">
      J05
    </text>
    <text x="-27.004" fill="#ff2800" font-family="Monaco" font-size="30" transform="translate(1298 1699.02)">
      J07
    </text>
    <g fill="#ff2800" transform="translate(1231 1641)">
      <path d="M10.469 39.925L.037 57.999l10.432 18.083 10.432-18.083-10.432-18.074zM123.531 39.925l-10.432 18.074 10.432 18.083 10.432-18.083-10.432-18.074zM23.085 97.921l10.432 18.078h20.87L43.949 97.921H23.085zM79.616.003l10.428 18.073h20.874L100.481.003H79.616zM79.612 116l20.865-.02 10.442-18.063-20.875.005L79.612 116zM23.085 18.078h20.864L54.387.004h-20.87L23.085 18.078z"/>
    </g>
    <g fill="#ff2800" transform="translate(1231 1757)">
      <path d="M10.469 39.925L.037 57.999l10.432 18.083 10.432-18.083-10.432-18.074zM123.531 39.925l-10.432 18.074 10.432 18.083 10.432-18.083-10.432-18.074zM23.085 97.921l10.432 18.078h20.87L43.949 97.921H23.085zM79.616.003l10.428 18.073h20.874L100.481.003H79.616zM79.612 116l20.865-.02 10.442-18.063-20.875.005L79.612 116zM23.085 18.078h20.864L54.387.004h-20.87L23.085 18.078z"/>
    </g>
    <text x="-27.004" fill="#ff2800" font-family="Monaco" font-size="30" transform="translate(1298 1931.02)">
      J09
    </text>
    <text x="-27.004" fill="#ff2800" font-family="Monaco" font-size="30" transform="translate(1298 2047.02)">
      J10
    </text>
    <g fill="#ff2800" transform="translate(1231 1989)">
      <path d="M10.469 39.925L.037 57.999l10.432 18.083 10.432-18.083-10.432-18.074zM123.531 39.925l-10.432 18.074 10.432 18.083 10.432-18.083-10.432-18.074zM23.085 97.921l10.432 18.078h20.87L43.949 97.921H23.085zM79.616.003l10.428 18.073h20.874L100.481.003H79.616zM79.612 116l20.865-.02 10.442-18.063-20.875.005L79.612 116zM23.085 18.078h20.864L54.387.004h-20.87L23.085 18.078z"/>
    </g>
    <text x="-27.004" fill="#ff2800" font-family="Monaco" font-size="30" transform="translate(1399 1293.02)">
      K04
    </text>
    <g fill="#ff2800" transform="translate(1332 1235)">
      <path d="M10.469 39.925L.037 57.999l10.432 18.083 10.432-18.083-10.432-18.074zM123.531 39.925l-10.432 18.074 10.432 18.083 10.432-18.083-10.432-18.074zM23.085 97.921l10.432 18.078h20.87L43.949 97.921H23.085zM79.616.003l10.428 18.073h20.874L100.481.003H79.616zM79.612 116l20.865-.02 10.442-18.063-20.875.005L79.612 116zM23.085 18.078h20.864L54.387.004h-20.87L23.085 18.078z"/>
    </g>
    <text x="-27.004" fill="#ff2800" font-family="Monaco" font-size="30" transform="translate(1399 1409.02)">
      K05
    </text>
    <g fill="#ff2800" transform="translate(1332 1351)">
      <path d="M10.469 39.925L.037 57.999l10.432 18.083 10.432-18.083-10.432-18.074zM123.531 39.925l-10.432 18.074 10.432 18.083 10.432-18.083-10.432-18.074zM23.085 97.921l10.432 18.078h20.87L43.949 97.921H23.085zM79.616.003l10.428 18.073h20.874L100.481.003H79.616zM79.612 116l20.865-.02 10.442-18.063-20.875.005L79.612 116zM23.085 18.078h20.864L54.387.004h-20.87L23.085 18.078z"/>
    </g>
    <text x="-27.004" fill="#ff2800" font-family="Monaco" font-size="30" transform="translate(1399 1525.02)">
      K06
    </text>
    <text x="-27.004" fill="#ff2800" font-family="Monaco" font-size="30" transform="translate(1399 1757.02)">
      K08
    </text>
    <text x="-27.004" fill="#ff2800" font-family="Monaco" font-size="30" transform="translate(1399 1989.02)">
      K10
    </text>
    <g fill="#ff2800" transform="translate(1332 1931)">
      <path d="M10.469 39.925L.037 57.999l10.432 18.083 10.432-18.083-10.432-18.074zM123.531 39.925l-10.432 18.074 10.432 18.083 10.432-18.083-10.432-18.074zM23.085 97.921l10.432 18.078h20.87L43.949 97.921H23.085zM79.616.003l10.428 18.073h20.874L100.481.003H79.616zM79.612 116l20.865-.02 10.442-18.063-20.875.005L79.612 116zM23.085 18.078h20.864L54.387.004h-20.87L23.085 18.078z"/>
    </g>
    <text x="-27.004" fill="#ff2800" font-family="Monaco" font-size="30" transform="translate(1499 1235.02)">
      L03
    </text>
    <g fill="#ff2800" transform="translate(1432 1177)">
      <path d="M10.469 39.925L.037 57.999l10.432 18.083 10.432-18.083-10.432-18.074zM123.531 39.925l-10.432 18.074 10.432 18.083 10.432-18.083-10.432-18.074zM23.085 97.921l10.432 18.078h20.87L43.949 97.921H23.085zM79.612 116l20.865-.02 10.442-18.063-20.875.005L79.612 116z"/>
    </g>
    <path fill="#ff2800" d="M1566.95 1351.5l-33.5 58.02h-67l-33.5-58.02 33.5-58.02h67l33.5 58.02zM1566.95 1583.6l-33.5 58.02h-67l-33.5-58.02 33.5-58.02h67l33.5 58.02zM1566.95 1815.69l-33.5 58.02h-67l-33.5-58.02 33.5-58.02h67l33.5 58.02z"/>
    <text x="-27.004" fill="#ff2800" font-family="Monaco" font-size="30" transform="translate(1499 2047.02)">
      L10
    </text>
    <g fill="#ff2800" transform="translate(1432 2105)">
      <path d="M79.616.003l10.428 18.073h20.874L100.481.003H79.616zM23.085 18.078h20.864L54.387.004h-20.87L23.085 18.078z"/>
    </g>
    <text x="-27.004" fill="#ff2800" font-family="Monaco" font-size="30" transform="translate(1600 1293.02)">
      M04
    </text>
    <g fill="#ff2800" transform="translate(1533 1235)">
      <path d="M10.469 39.925L.037 57.999l10.432 18.083 10.432-18.083-10.432-18.074zM123.531 39.925l-10.432 18.074 10.432 18.083 10.432-18.083-10.432-18.074zM23.085 97.921l10.432 18.078h20.87L43.949 97.921H23.085zM79.616.003l10.428 18.073h20.874L100.481.003H79.616zM79.612 116l20.865-.02 10.442-18.063-20.875.005L79.612 116zM23.085 18.078h20.864L54.387.004h-20.87L23.085 18.078z"/>
    </g>
    <text x="-27.004" fill="#ff2800" font-family="Monaco" font-size="30" transform="translate(1600 1409.02)">
      M05
    </text>
    <text x="-27.004" fill="#ff2800" font-family="Monaco" font-size="30" transform="translate(1600 1525.02)">
      M06
    </text>
    <g fill="#ff2800" transform="translate(1533 1467)">
      <path d="M10.469 39.925L.037 57.999l10.432 18.083 10.432-18.083-10.432-18.074zM123.531 39.925l-10.432 18.074 10.432 18.083 10.432-18.083-10.432-18.074zM23.085 97.921l10.432 18.078h20.87L43.949 97.921H23.085zM79.616.003l10.428 18.073h20.874L100.481.003H79.616zM79.612 116l20.865-.02 10.442-18.063-20.875.005L79.612 116zM23.085 18.078h20.864L54.387.004h-20.87L23.085 18.078z"/>
    </g>
    <text x="-27.004" fill="#ff2800" font-family="Monaco" font-size="30" transform="translate(1600 1873.02)">
      M09
    </text>
    <g fill="#ff2800" transform="translate(1533 1815)">
      <path d="M10.469 39.925L.037 57.999l10.432 18.083 10.432-18.083-10.432-18.074zM123.531 39.925l-10.432 18.074 10.432 18.083 10.432-18.083-10.432-18.074zM23.085 97.921l10.432 18.078h20.87L43.949 97.921H23.085zM79.616.003l10.428 18.073h20.874L100.481.003H79.616zM79.612 116l20.865-.02 10.442-18.063-20.875.005L79.612 116zM23.085 18.078h20.864L54.387.004h-20.87L23.085 18.078z"/>
    </g>
    <text x="-27.004" fill="#ff2800" font-family="Monaco" font-size="30" transform="translate(1600 1989.02)">
      M10
    </text>
    <text x="-27.004" fill="#ff2800" font-family="Monaco" font-size="30" transform="translate(1701 1467.02)">
      N05
    </text>
    <g fill="#ff2800" transform="translate(1634 1409)">
      <path d="M10.469 39.925L.037 57.999l10.432 18.083 10.432-18.083-10.432-18.074zM123.531 39.925l-10.432 18.074 10.432 18.083 10.432-18.083-10.432-18.074zM23.085 97.921l10.432 18.078h20.87L43.949 97.921H23.085zM79.616.003l10.428 18.073h20.874L100.481.003H79.616zM79.612 116l20.865-.02 10.442-18.063-20.875.005L79.612 116zM23.085 18.078h20.864L54.387.004h-20.87L23.085 18.078z"/>
    </g>
    <text x="-27.004" fill="#ff2800" font-family="Monaco" font-size="30" transform="translate(1701 1583.02)">
      N06
    </text>
    <text x="-27.004" fill="#ff2800" font-family="Monaco" font-size="30" transform="translate(1701 1699.02)">
      N07
    </text>
    <g fill="#ff2800" transform="translate(1634 1641)">
      <path d="M10.469 39.925L.037 57.999l10.432 18.083 10.432-18.083-10.432-18.074zM123.531 39.925l-10.432 18.074 10.432 18.083 10.432-18.083-10.432-18.074zM23.085 97.921l10.432 18.078h20.87L43.949 97.921H23.085zM79.616.003l10.428 18.073h20.874L100.481.003H79.616zM79.612 116l20.865-.02 10.442-18.063-20.875.005L79.612 116zM23.085 18.078h20.864L54.387.004h-20.87L23.085 18.078z"/>
    </g>
    <text x="-27.004" fill="#ff2800" font-family="Monaco" font-size="30" transform="translate(1701 1815.02)">
      N08
    </text>
    <g fill="#ff2800" transform="translate(1634 1757)">
      <path d="M10.469 39.925L.037 57.999l10.432 18.083 10.432-18.083-10.432-18.074zM123.531 39.925l-10.432 18.074 10.432 18.083 10.432-18.083-10.432-18.074zM23.085 97.921l10.432 18.078h20.87L43.949 97.921H23.085zM79.616.003l10.428 18.073h20.874L100.481.003H79.616zM79.612 116l20.865-.02 10.442-18.063-20.875.005L79.612 116zM23.085 18.078h20.864L54.387.004h-20.87L23.085 18.078z"/>
    </g>
    <text x="-27.004" fill="#ff2800" font-family="Monaco" font-size="30" transform="translate(1701 2047.02)">
      N10
    </text>
    <g fill="#ff2800" transform="translate(1634 1989)">
      <path d="M10.469 39.925L.037 57.999l10.432 18.083 10.432-18.083-10.432-18.074zM123.531 39.925l-10.432 18.074 10.432 18.083 10.432-18.083-10.432-18.074zM23.085 97.921l10.432 18.078h20.87L43.949 97.921H23.085zM79.616.003l10.428 18.073h20.874L100.481.003H79.616zM79.612 116l20.865-.02 10.442-18.063-20.875.005L79.612 116zM23.085 18.078h20.864L54.387.004h-20.87L23.085 18.078z"/>
    </g>
    <text x="-27.004" fill="#ff2800" font-family="Monaco" font-size="30" transform="translate(1801 1757.02)">
      O08
    </text>
    <g fill="#ff2800" transform="translate(1734 1699)">
      <path d="M10.469 39.925L.037 57.999l10.432 18.083 10.432-18.083-10.432-18.074zM123.531 39.925l-10.432 18.074 10.432 18.083 10.432-18.083-10.432-18.074zM23.085 97.921l10.432 18.078h20.87L43.949 97.921H23.085zM79.616.003l10.428 18.073h20.874L100.481.003H79.616zM79.612 116l20.865-.02 10.442-18.063-20.875.005L79.612 116zM23.085 18.078h20.864L54.387.004h-20.87L23.085 18.078z"/>
    </g>
    <text x="-27.004" fill="#ff2800" font-family="Monaco" font-size="30" transform="translate(1801 1873.02)">
      O09
    </text>
    <g fill="#ff2800" transform="translate(1734 1815)">
      <path d="M10.469 39.925L.037 57.999l10.432 18.083 10.432-18.083-10.432-18.074zM123.531 39.925l-10.432 18.074 10.432 18.083 10.432-18.083-10.432-18.074zM23.085 97.921l10.432 18.078h20.87L43.949 97.921H23.085zM79.616.003l10.428 18.073h20.874L100.481.003H79.616zM79.612 116l20.865-.02 10.442-18.063-20.875.005L79.612 116zM23.085 18.078h20.864L54.387.004h-20.87L23.085 18.078z"/>
    </g>
    <text x="-27.004" fill="#ff2800" font-family="Monaco" font-size="30" transform="translate(1801 1989.02)">
      O10
    </text>
    <g fill="#ff2800" transform="translate(1734 1931)">
      <path d="M10.469 39.925L.037 57.999l10.432 18.083 10.432-18.083-10.432-18.074zM123.531 39.925l-10.432 18.074 10.432 18.083 10.432-18.083-10.432-18.074zM23.085 97.921l10.432 18.078h20.87L43.949 97.921H23.085zM79.616.003l10.428 18.073h20.874L100.481.003H79.616zM79.612 116l20.865-.02 10.442-18.063-20.875.005L79.612 116zM23.085 18.078h20.864L54.387.004h-20.87L23.085 18.078z"/>
    </g>
    <text x="-27.004" fill="#ff2800" font-family="Monaco" font-size="30" transform="translate(1801 2105.02)">
      O11
    </text>
    <text x="-27.004" fill="#ff2800" font-family="Monaco" font-size="30" transform="translate(1902 1699.02)">
      P07
    </text>
    <g fill="#ff2800" transform="translate(1835 1641)">
      <path d="M10.469 39.925L.037 57.999l10.432 18.083 10.432-18.083-10.432-18.074zM23.085 97.921l10.432 18.078h20.87L43.949 97.921H23.085zM79.616.003l10.428 18.073h20.874L100.481.003H79.616zM79.612 116l20.865-.02 10.442-18.063-20.875.005L79.612 116zM23.085 18.078h20.864L54.387.004h-20.87L23.085 18.078z"/>
    </g>
    <path fill="#ff2800" d="M1969.15 1815.69l-33.5 58.02h-67l-33.5-58.02 33.5-58.02h67l33.5 58.02z"/>
    <text x="-27.004" fill="#ff2800" font-family="Monaco" font-size="30" transform="translate(1902 1931.02)">
      P09
    </text>
    <g fill="#ff2800" transform="translate(1835 1873)">
      <path d="M10.469 39.925L.037 57.999l10.432 18.083 10.432-18.083-10.432-18.074zM23.085 97.921l10.432 18.078h20.87L43.949 97.921H23.085zM79.616.003l10.428 18.073h20.874L100.481.003H79.616zM79.612 116l20.865-.02 10.442-18.063-20.875.005L79.612 116zM23.085 18.078h20.864L54.387.004h-20.87L23.085 18.078z"/>
    </g>
    <text x="-27.004" fill="#ff2800" font-family="Monaco" font-size="30" transform="translate(1902 2047.02)">
      P10
    </text>
    <g fill="#ff2800" transform="translate(1835 1989)">
      <path d="M10.469 39.925L.037 57.999l10.432 18.083 10.432-18.083-10.432-18.074zM23.085 97.921l10.432 18.078h20.87L43.949 97.921H23.085zM79.616.003l10.428 18.073h20.874L100.481.003H79.616zM79.612 116l20.865-.02 10.442-18.063-20.875.005L79.612 116zM23.085 18.078h20.864L54.387.004h-20.87L23.085 18.078z"/>
    </g>
    <path fill="#ff2800" d="M1945.469 1738.925l-10.432 18.074 10.432 18.083 10.432-18.083-10.432-18.074zM1945.469 1854.925l-10.432 18.074 10.432 18.083 10.432-18.083-10.432-18.074z"/>
    <text x="-27.004" fill="#ff2800" font-family="Monaco" font-size="30" transform="translate(1097 1467.02)">
      H05
    </text>
    <g fill="#ff2800" transform="translate(1131 1583)">
      <path d="M10.469 39.925L.037 57.999l10.432 18.083 10.432-18.083-10.432-18.074zM123.531 39.925l-10.432 18.074 10.432 18.083 10.432-18.083-10.432-18.074zM23.085 97.921l10.432 18.078h20.87L43.949 97.921H23.085zM79.616.003l10.428 18.073h20.874L100.481.003H79.616zM79.612 116l20.865-.02 10.442-18.063-20.875.005L79.612 116zM23.085 18.078h20.864L54.387.004h-20.87L23.085 18.078z"/>
    </g>
    <text x="-27.004" fill="#ff2800" font-family="Monaco" font-size="30" transform="translate(1298 1815.02)">
      J08
    </text>
    <g>
      <path fill="#fff" d="M1024.427 1805.959l-46.254-.011v-9.349l40.856.011 20.423-35.37 8.102 4.668-23.127 40.051z"/>
      <g fill="#fff" transform="translate(1432 1293)">
        <path d="M94.427 106.959l-46.254-.011v-9.349l40.856.011 20.423-35.37 8.102 4.668-23.127 40.051zM24.543 53.766l-8.097-4.674L39.573 9.041l46.243.011v9.349l-40.851-.006-20.422 35.371z"/>
      </g>
      <g fill="#fff" transform="translate(1432 1525)">
        <path d="M66.995 44.187L35.077 26.086 39.092 19l27.903 15.826L94.903 19l4.02 7.086-31.928 18.101z"/>
        <path d="M33.013 97.384V54.095L66.908 34.88l34.079 17.566v44.938L66.993 78.112l-33.98 19.272zm33.98-28.628l25.846 14.65V57.409L67.083 44.137 41.156 58.84v24.566l25.837-14.65z"/>
      </g>
      <g fill="#fff" transform="translate(1432 1757)">
        <path d="M67.009 100.979L33.013 81.355V24.838l16.998-9.817 4.067 7.058-12.921 7.456v47.117l25.852 14.927 25.834-14.927V29.535l-12.912-7.456 4.072-7.058 16.984 9.817v56.517l-33.978 19.624z"/>
        <path d="M67.009 66.431L35.051 47.987l4.072-7.058 27.886 16.103 27.872-16.103 4.072 7.058-31.944 18.444z"/>
      </g>
      <g fill="#fff" transform="translate(1835 1757)">
        <path d="M94.427 106.959l-46.254-.011v-9.349l40.856.011 20.423-35.37 8.102 4.668-23.127 40.051zM24.543 53.766l-8.097-4.674L39.573 9.041l46.243.011v9.349l-40.851-.006-20.422 35.371z"/>
      </g>
    </g>
  </g>
</svg>
