<svg viewBox="0 0 150 150" xmlns="http://www.w3.org/2000/svg" fill-rule="evenodd" clip-rule="evenodd" stroke-linejoin="round" stroke-miterlimit="2"><g transform="matrix(.58873 0 0 .58873 12.178 46.331)" stroke="#ff2800"><circle r="2" fill="red" stroke-width="1.7"/><circle cy="24.348" r="2" fill="red" stroke-width="1.7"/><circle cy="48.696" r="2" fill="red" stroke-width="1.7"/><circle cy="73.043" r="2" fill="red" stroke-width="1.7"/><circle cy="97.391" r="2" fill="red" stroke-width="1.7"/><circle cx="24.348" r="2" fill="red" stroke-width="1.7"/><circle cx="24.348" cy="24.348" r="2" fill="red" stroke-width="1.7"/><circle cx="24.348" cy="48.696" r="2" fill="red" stroke-width="1.7"/><circle cx="24.348" cy="73.043" r="2" fill="red" stroke-width="1.7"/><circle cx="24.348" cy="97.391" r="2" fill="red" stroke-width="1.7"/><circle cx="48.696" r="2" fill="red" stroke-width="1.7"/><circle cx="48.696" cy="24.348" r="2" fill="red" stroke-width="1.7"/><circle cx="48.696" cy="48.696" r="2" fill="red" stroke-width="1.7"/><circle cx="48.696" cy="73.043" r="2" fill="red" stroke-width="1.7"/><circle cx="48.696" cy="97.391" r="2" fill="red" stroke-width="1.7"/><circle cx="73.043" r="2" fill="red" stroke-width="1.7"/><circle cx="73.043" cy="24.348" r="2" fill="red" stroke-width="1.7"/><circle cx="73.043" cy="48.696" r="2" fill="red" stroke-width="1.7"/><circle cx="73.043" cy="73.043" r="2" fill="red" stroke-width="1.7"/><circle cx="73.043" cy="97.391" r="2" fill="red" stroke-width="1.7"/><circle cx="97.391" r="2" fill="red" stroke-width="1.7"/><circle cx="97.391" cy="24.348" r="2" fill="red" stroke-width="1.7"/><circle cx="97.391" cy="48.696" r="2" fill="red" stroke-width="1.7"/><circle cx="97.391" cy="73.043" r="2" fill="red" stroke-width="1.7"/><circle cx="97.391" cy="97.391" r="2" fill="red" stroke-width="1.7"/><circle cx="121.739" r="2" fill="red" stroke-width="1.7"/><circle cx="121.739" cy="24.348" r="2" fill="red" stroke-width="1.7"/><circle cx="121.739" cy="48.696" r="2" fill="red" stroke-width="1.7"/><circle cx="121.739" cy="73.043" r="2" fill="red" stroke-width="1.7"/><circle cx="121.739" cy="97.391" r="2" fill="red" stroke-width="1.7"/><circle cx="146.087" r="2" fill="red" stroke-width="1.7"/><circle cx="146.087" cy="24.348" r="2" fill="red" stroke-width="1.7"/><circle cx="146.087" cy="48.696" r="5" fill="none" stroke-width="2" stroke-linejoin="miter" stroke-miterlimit="4"/><circle cx="146.087" cy="73.043" r="5" fill="none" stroke-width="2" stroke-linejoin="miter" stroke-miterlimit="4"/><circle cx="146.087" cy="97.391" r="5" fill="none" stroke-width="2" stroke-linejoin="miter" stroke-miterlimit="4"/><circle cx="170.435" r="5" fill="none" stroke-width="2" stroke-linejoin="miter" stroke-miterlimit="4"/><circle cx="170.435" cy="24.348" r="5" fill="none" stroke-width="2" stroke-linejoin="miter" stroke-miterlimit="4"/><circle cx="170.435" cy="48.696" r="5" fill="none" stroke-width="2" stroke-linejoin="miter" stroke-miterlimit="4"/><circle cx="170.435" cy="73.043" r="5" fill="none" stroke-width="2" stroke-linejoin="miter" stroke-miterlimit="4"/><circle cx="170.435" cy="97.391" r="5" fill="none" stroke-width="2" stroke-linejoin="miter" stroke-miterlimit="4"/><circle cx="194.783" r="5" fill="none" stroke-width="2" stroke-linejoin="miter" stroke-miterlimit="4"/><circle cx="194.783" cy="24.348" r="5" fill="none" stroke-width="2" stroke-linejoin="miter" stroke-miterlimit="4"/><circle cx="194.783" cy="48.696" r="5" fill="none" stroke-width="2" stroke-linejoin="miter" stroke-miterlimit="4"/><circle cx="194.783" cy="73.043" r="5" fill="none" stroke-width="2" stroke-linejoin="miter" stroke-miterlimit="4"/><circle cx="194.783" cy="97.391" r="5" fill="none" stroke-width="2" stroke-linejoin="miter" stroke-miterlimit="4" stroke-dasharray="4,2"/><circle cx="219.13" r="5" fill="none" stroke-width="2" stroke-linejoin="miter" stroke-miterlimit="4" stroke-dasharray="4,2"/><circle cx="219.13" cy="24.348" r="5" fill="none" stroke-width="2" stroke-linejoin="miter" stroke-miterlimit="4" stroke-dasharray="2,4"/><circle cx="219.13" cy="48.696" r="5" fill="none" stroke-width="2" stroke-linejoin="miter" stroke-miterlimit="4" stroke-dasharray="2,4"/><circle cx="219.13" cy="73.043" r="5" fill="none" stroke-width="2" stroke-linejoin="miter" stroke-miterlimit="4"/><circle cx="219.13" cy="97.391" r="5" fill="none" stroke-width="2" stroke-linejoin="miter" stroke-miterlimit="4"/></g></svg>