<svg viewBox="0 0 150 150" xmlns="http://www.w3.org/2000/svg" fill-rule="evenodd" clip-rule="evenodd"><path d="M-2.5 84.429l.027-1.541.027 1.573.027-1.135.026-.146.08.6.027 1.704.027.746.027-1.184.027.794.08.033.027 1.087.027-.26.027.909.026-.373.08-1.298.027.113.027-.454.027.454.027-.551.08.113.054-1.492.027-1.363.027.973.08 1.46.027-.421.026.762.027.179.027-1.087.08-.812.027-.032.027-.114.027.357.027-1.265.08.065.027-2.142.026 1.006.027-.941.027-.616.08 1.541.027-.211.027-.373.027-.033.027.065.08.373.027-.616.027.097.026-.584.027.65.08-.212.027-1.265.027-.017.027-.746.027-.827.08-.179.027-.778.027-.373.026-.552.027 1.833.08-.097.026-.552.027-.065.027-1.492.027-.828.08-.632.027-1.136.027-.373.026 1.005.027-1.314.08-1.33.028 1.801.026.86.027-.47.027-.91.08 3.051.027.34.027-1.086.026.032.027-.097.08.47.028 1.801.027.033.026 1.508.027-.178.08 1.07.027.342.027 1.654.027.422.026 1.265.081.893.027-.503.027-1.769.026-.178.027 1.671.107-1.428.027 1.169.027.713.026-.746.081-.892.027-.065.027.568.026-1.233.027-1.023h.08l.027.73.027-1.687.027-1.314.027-.632.08-.487h.027l.027.308.027-.276.026.033.08-.893.027.73.027-1.217.027.147.027-1.282.08.454.027.34.027 1.51.027-.146.026 1.314.08-1.347.028-.276.026.244.027-1.185.027.065.08-.68.054-.066.027 1.022.027-.762.08.551.027.211.026.52.027-1.217.027 1.476.08.843.027-.113.027.21.027-2.465.027-.065.08.584.027-.097.026-.017.027-.438.027.552.08-.049.027-.762.027-.13.027-.39.027-.827.08.893.027-.617.027-.032.026-2.483.027.438.08-.308.027.503.027.584.027-.454.027-.6.08.13.027-.098.027-.779.026-.13.027.163.08.778.028.504.026-.13.027-1.217.027-.746.08.064.027.098.027.568.027.454.026-.21.08.437.028.097.027-.778.026.99.027.892.08.502.027-.308.027.73.027-1.2.026.405.081-.178.027-.568.027.308.026-.146.027-.162.08.34.027.715.027.308.027-.552.027-.649.08.179.027-.828.027.033.027-1.055.026.244.08.13.027-.958.027-.097.027-.195.027-.373.08-.779.027.503.027 1.12.027.097.026.373.082.309.027.308.026-.146.027-.065.027 1.444.08.454.027.178.027-.178.027-.487.027-.681.08-.276.027-.21.027-.358.026-1.006.027.568.08-.438.027-.405.027-.455.027-.194.027.194h.08l.027-.681.027-.941.026-.909.027.568.08.779.027-2.19.027-1.46.027-.276.027-.163.08 1.023.027-.26.027-1.428.027-.73.026-.535.08-.162.027.292.027-2.45.027-.195.027-.308.08.032.027.454.027 1.104.027.227.026-.097.08.032.028-3.212.026 3.926.027-1.93.027-1.753.08.406.027.714.027 1.687.027.097.026 2.271.08-.13.028-.194.026-.892.027-.99.027.876.08.925.027.909.027.389.027-.974.027.374.08.567.027-1.2.027-1.866.026-.454.027 1.006.08.308.027.26.027.064.027-1.59.027-.957.08.26.027.39.027 1.524.027.033.026-.925.08-.195.028.13.026.552.027.275.027-.957.08-1.022.027-1.33.027-.909.027-.357.027 1.185.08.47.027-.08.026-1.17.027-.161.027.649.08-.617.027.617.027-1.801.027-.52.027-.259.08.698.027-.893.027.325.026-.357.027.957.08.876.026 2.304.027-.584.027.357.027-1.298.08.974.027-.78.026-.243.027.957.027-1.346.08.681.027 2.45.027.584.027.811.027-.097.08 1.477.027-.471.027-1.282.026 2.401.027-.097.08-1.8.027.518.027.763.027-1.038.027 2.206.08.162.027-.746.027-.065.026-1.347h.027l.08-.13.027.78.027-1.152.027 1.963.027 2.466.08-.098.027 1.152.027-1.087.027-.616.026-.033.08-.503.027.584.027-.146.027 1.46.027.325.08-.276.027.34.027-.096.027-2.077.026-.276.08-.373.028-1.168.026-.227.027 1.12.027.518.08-1.168.027-.503.027.162.027-.68.027.177.08.309.027-.244.027-.503.026-.535.027-.925.08.244.027 1.525.027.178.027 1.623.027 1.249.08-1.46.027.94.027-.032.027.211.026-.52.08-.518.028-.86.026.243.027-.892.027-.276.08-.714.027.503.027-1.833.027.243.026.373.08-.405.028.097.026 1.168.027-.86.027-.502.08-.52.027-.194.027.276.027 1.297.027.098.08-.065.027.243.027-1.914.026-.26.027-.876.08-.065.027-.162.027.552.027-.974.027-1.639.08 1.023.027-.617.027.487.026-.227.027.681.08.033.027-1.428.027-1.055.027.665.027.325.08-.097.027 2.157.027.13.026-1.525.027-1.346.08.73.027-1.752.054-1.688.027-1.135.08 1.135.027 1.363.027-.26.027.828.026-.828.08.406.027-.26.027-1.168.027-1.298.027.65.08-.78.027-.632.027-.536.027.617.026-.032.08.032.028 1.412.026.064.027 1.12.027.048.08-1.135.027-.65.027.13.027.163.027.714.08.194.027.163.026-.763.027-.73.027-.357.082-.795.027-1.135.026-2.888.027.13.027 1.914.08-1.006.027-.649.027-1.266.026 1.753.027.276h.08l.028 1.216.026 2.612.027 3.618.027 1.314.08-.73.027 1.055.027 2.433.027-.762.026.34.081.455.027-1.558.027.098.026-2.742.027-.065.08-1.054.027-.438.027 3.78.027 1.946.027 2.499.08-1.12.027-.762.027-.746.026 1.103.027 1.866.08-.033.027-1.054.027-1.2.027-.277.027.877.08.843h.027l.027 1.022.027-2.174.026.779.08-1.006.027-.308.027 2.076.027-.794.027.275.08-1.282.027.503.027-.47.027-1.168.026-1.834.08.163.027-.665.027.064.027 1.396.027-.503.08-.033.027.438.027 1.785.027-.34.027 1.022.08.032.027-2.125.026 1.168.027.308.027-.779.08-1.346.027-.13.027.47.027.26.027-.974.08.455.027 1.103.026.195.027-.682.027-1.135.08-.195.027.162.027.26.027-.584.027-.357.08.292.027 1.265.027-1.525.026.714.027 1.687.08.292.028.033.026.827.027 2.84.027 1.59.08-.033.027-.211.027-.503.026 2.11.027-1.331.08-.438.028-.228.026 1.947.027-.665.027.633.08.065.027-1.055.027-.032.027.957.026-.065.08.47.027-1.362.026-1.022.027-.325.027-.843.08.908.027-.973.027.503.027-.438.026-.812.081-.291.027.876.027.665.026-.568h.027l.08-.325.027-.243.027-.811.027-.292.027-.633.08 1.07.027-.567.027-.438.026.568.027-.633.08.162.027-.162.027 2.628.027-.876.027-.746.08 1.703.027.893.027-.52.027-1.249.026 1.363.08-.86.027-.811.027-.568.027.568.027-.08.08-.114.027-.13.027-1.087.027-.666.026.374.08-.747.027.47.027.341.027-1.167.027 1.476.08-.65.027-.86.027-.177.027-1.023.026-1.655.08.763.028-.178.026-1.736.027 1.022.027-.373.08.99.027-.163.027-1.217.027 1.282.027-.39.08-.275.027-.892.026.632.027-.032.027 1.492.08-.973.027-1.12.027-1.833.027.39.027-1.039.08.876.027.876.026.033.027-1.233.027-1.412.08-1.216.028-.617.026 1.282.027-1.704.027.033.08 2.904.027.39.027-2.045.026-1.136.027-1.606.08-1.33.028 1.995.026-.438.027 1.46.027-2.255.08-.649.027-2.109.027.552.026.99.027 2.336.081-.65.027-2.222.027.844.026 1.914.027-1.363.08-.146.027.925.027-1.12.027-1.216.026.065.081-.13.027-2.758.027-.033.026-.584.027 1.396.08.762.027-1.038.027 1.038.027-1.59.027-.892.08.113.027-1.54.027.389.027-1.055.026.146.08-1.476.027-.811.027 1.67.027.276.027-1.72.08-1.038.027 1.963.027-.778.027.26.026-.31.08-.826.027.324.027-1.07.027 1.443.027 1.98.08.113.027 3.375.027.892.027 2.466.026-1.541.08 2.368.028.114.026-.438.027-1.882.027-.39.081-.097.027-2.385.027.373.027-1.12.027 1.818.08.633.027.438.027-.6.026-2.288.027-.584.08-.276.027.146.027-.146.027 3.504.027-.421.08-.536.027-.308.027 1.298.026 1.541.027.422.08-.065.028-1.768.026 3.13.027-.129.027-.73.08.39.027-.455.027-.81.027-.228.026-.876.08-.795.028.194.027-.373h.026l.027.714.08 1.493.027-.568.027-1.46.027-1.558.026.309.081.227.027-.6.027-.033.026-.487.027-1.525.08-.21.027.308.027.048.027 3.456.027-.211.08.568.027-.763.027.195.027 2.628.026-.762.08-.195.027-.697.027-.276.027.276.027-1.104.08.097.027-.73.027-.908.027.34.026-.113.08.552.027.097.027.86.027-.974.027.017.08.486.027-1.135.027 1.184.027-.811.027-.26.08.568.027-.113.026-.795.027-.503.027 1.882.08-.503.027-.211.027-1.087.027-.243.027.34.08-.714.027-.389.026-.893.027-.454.027-.762.08-.276.027-.438.027-.292.027.454.027-.243.08-1.314.027.34h.027l.026 2.66.027-.729.08 2.239.027 1.087.027 1.282.027-.503.027 2.433.08-2.239.027-.373.027-.227.026-.081.027-.406.08-1.655.026.211.027 1.931.027-.308.027.697.08.406.027-.73.027-.584.026.746.027.47.08.698.028-.47.026-.763.027.292h.027l.08.406.027-.276.027.179.026-.91.027-.502.08.211.028.422.027-1.477.026.065.027 1.347.08-.633.027-1.622.027-1.769.027.098.026-.033.081-.6.027-.649.027-1.33.026.162.027-1.817.08 1.087.027-2.125.027.681.027-1.33.026.34.081-.048.027 1.265.027.211.027-1.428.026.568.08.617.027-1.282.027-.584.027.795.027.146.08-1.217.027-1.395.027.324.027-.762.026-.828.08.957.027 1.445.027 1.638.027-.39.027.455.08-.876.027-1.006.027 2.499.027 2.238h.027l.08-.454.027.552.026-.179.027 2.028.027-.227.08 1.363.027-.276.027-.551.027-.406.027-.47.08 1.59.027 4.169.026-1.022.027.032.027 1.282.08 3.423.027-1.428.027-.227.027.925.027.162.08 1.704.027 2.563.027-2.125.026 1.606.027-.373.08-1.623.027 1.736.027-1.995.027-.811.027.843.08 1.363.027 1.184.027 2.174.026-1.151.027.632.08-1.152.027-1.557.027 1.217.027.633.027-.033.08.844.027-.844.027 1.006.027-1.963.026.811.08-.097.028 2.287.026-.097.027-1.46.027-2.531.08 1.281.027-1.151.027-1.363.027.698.026-1.006.08.243.028.13.027-1.574.026-.26.027-.032.08.908.027-.178.027-1.168.027-.844.026-1.314.081 1.217.027-2.239.027-.081.026.99.027 3.342.08-.487.027 1.428.027-.341.027.892.027-.357.08-.292.027 1.51.027.859.027 1.006.026-1.152.08-.097.027-.65.027-1.476.027 1.055.027-1.395.081.47.027-1.33.027 1.914.027.763.027-.795.08.762.027-.73.026.925.027.909.027.486.08.13h.027l.027-.779.027-2.093.027-.843.08-.373.027-.844.027 1.525.026-1.363.027.114.08 1.12.027-.714.027 1.005h.027l.027 1.395.08.86.027-.097.027.373.026-.6.027-2.19.08.6.027 1.363.027-.568.027-1.395.027.13.08.291.027-.697.027-.503.027-.909.026.114.08.568.027 1.476.027-1.233h.027l.027-.535.08 1.492.027.244.027-.179.027-.016.026 2.174.08-.032.028-1.72.026-.47.027.21.027-2.839.08.097.027-1.216.027-.276.027-.406.027.99h.08l.027.405.026-.6.027-1.054.027 1.93.08.941.027-.908.027 1.85.027-.244.027-.665.08.21.027-.778.027.243.026.893.027-1.46.08-.406.027.973.027-1.314.027.211.027-.065h.08l.027-.032.027.162.027-.276.026 1.054.08-.973.028-.21.026-.26.027.438.027-1.022.08.032.027 1.12.027.13.027-.569.027-2.693.08-1.314.027-.762.026.113.027-.486.027 1.281.08-.243.027-1.347.027.52.027.697.027.276.08-.941.027-.373.027.276.026.486.027 1.493.08.957.026.098.027-.958.027.698.027 4.299.08 1.022.027-.957.027.162.026.552h.027l.08.6.027 2.012.027.195.027.584.027-1.006.08.762.027 1.168.027-.551.026-.681.027 1.249.08-.39.027-.827.027 1.85.027.632.027-.503.08-.097.027 1.07.027.228.027.308.026 2.807.08.34.027-.746.027.958.027.762.027-1.363.08-1.282.027.73.027.617.027-1.168.026.908.08-.389.027-.195.027-1.054.027-.893.027.763h.08l.027.86.027.617.027-.455.026 1.006.08-.195.028.033.026.698.027-.195.027.097.08 1.152.027-3.148.027.747.027-.714.027.519.08-.422.027.536.027-.341.026-.844.027.033.08 1.444.027-.795.027-1.704.027-.292.027-1.687.08-.065.027.308h.027l.027-.065.026-.227.08-.178.028.405.026.162h.027l.027-2.125.08.033.027 1.509.027.356.027-.356.026-.228.08.893.028 2.076.026-.486.027-.13.027-1.622.08-.422.027-.406.027-.097.027-.292.027-2.92.08.583.027.536.027-.292.026-.276.027-.438.08.568.027-1.168.027.746.027-.373.027.308.08.827.027-.194.027-.162.026-.844.027.276.08-.812.027-.957.027-.065.027 1.623.027 1.314.08-.049.027-.86.027-1.281.027.584.026-.146.08-.828.027-.178.027.649.027-1.493.027.552.08-.811.027-.341.027-.925.027.617.026.178.08-.616.027.21.027 1.38.027.519.027 1.103.08-.373.027.13.027.778.027.357.027-1.833.08.016.027-.519.026-.698.027-.502.027.47.08-.195.027-.146.027-.843.027.243.027-.34.08-.065.027.47.026 1.346.027-.535.027-.422.082.763.027-.39.026.455.027-.033.027 1.639.08.697.027.163.053.422.027-1.185.08.114.028.308.026-1.233.027-.26.027 1.46.08-.405.027.065.027.26.027-.065.026.843.081 1.168.027.503.027.26.026.665.027-2.531.08-.47h.027l.027-1.671.027.778.027-.276.08-.032.027-.406.027-.778.026 1.785.027.243.08-.26.027-.34.054 1.005.027-.162.08 1.33.027-.08.027.502.027-1.12.026-.567.08-.13.027 1.282.027-.13.027-.324.027.13h.08l.027-.536.027-.032.027-1.152.026.99.08-.26.027-.373.027-.227.027-.163.027-.34.08-.325.027 1.168.027.065.027.357.027-1.266.08-.194.027.162.026.032.027.374.027-1.428.08-.406.027-.568.027-.405.027 1.606.107-.325.027.438.026.91.027.437.027 1.396.08-.05.028.374.026-.373.027.34.027-.308.08 1.834.027-.195.027.195h.026l.027-1.12h.08l.028 1.347.026 2.092.027-.924.027 1.282.08-.552.027.6.027-.633.026-.681.027.698.08.26.028 1.914.026-.925.027.21.027-.064.08.762.026-1.087.027-.438.026-1.054.027-.552.08.146.028.195.026-.746.027.94.027-.194.08-.649.027-1.233.027.13.027-.844.026-1.087.081.47.027-.956.027-.422.026 1.768.027-.795.08.033.027.292.027-.682.027-1.281.027.876.08-.195.027-.357.027.357.026-.52.027 1.688.08.39.027-1.331.027.032.027-.519.027-.86.08.163.027-.228.027-.405.027.373.026.162.08-1.087.027-.438.027.957.027-.113.027-.13.08-.033.027-1.427.027-1.574.027.308.026 1.136.08-.34.027-.828.027.519.027.244.027 1.67.08.666.027.243.027-.13.027-.519.027.049.08.632.027-1.119.026-1.622.027.178.027-.551.08-.244.027 1.104.027.13.027-1.055.027 2.206.08-.194.027 1.103.026-.6.027-.13.027.503.08.032.027.795.027.227.027.276.027-.162.08.924.027-.665.027-.34.026 1.914.027-.925.08.406.028-.325.026.487.027-1.055.027 1.412.08.551.027.39.027-.681.026.324.027 1.2.08.52.028-.487.026.032.027-1.135.027-1.266.08.633.027-1.233.027 1.006.027-1.12.026.114.081.033.027-.47.027-.212.026-.162.027.503.08-.308.027-1.25.027-1.233.027.276.026.081.081-.13.027 1.087.027.682.026.13.027-.438.08.843.027-.714.027.617.027.763.027.973.08-.406.027-.065.027-1.233.027.211.026 1.087.08.73.027-.162.027-.454.027.665.027.487.08.957.027-.26.027-.438.027.763.026-.244.08-.26.027.569.027.778.027.358.027.291.08.227.027-.389.027-.162.027-.487.027-.73.08.974.027 1.46.026.795.027-.6.027.308.081-.227.027.194.027.665.027.698.027.195.08-.6.027-1.152.027 1.427.026-1.379.027.179.08.632.027-.762.027-1.395.027-.228.027.504.08-.471.027-.536.027.974.026-.26.027-.697.08-.373.028 1.135.026.163.027.47.027-.032.08.94.027-1.41.027.437.027-.762.026.99.08.389.028-.455.027-1.022.026.065.027-.438.08.097.027.341.027.455.027-.99.026-.763.108-.697.027.6.026-.324.027.6h.08l.027-.438.027-.357.027.162.027.34.08-.13.027.958.027.454.027-.795.026-.81h.08l.027-.471.027.13.027.665.027-.39.08.098.027.567.027 1.38.027.68.026-.129.08.26.027-.162.027.648.027.033.027-.552.08.325.054.713.027-.713.027.665.08-.114.027.536.026-.227.027-.211.027-.747h.08l.027.455.027-.714.027.551.027.292.08.276.027-.632.026.551.027.698.027.843.08 1.136.027-.454.027.065.027-.033.027.535.08.163.027-1.217.027.568.026-1.412.027.487.08-.227.027.99.027-.292.027.551.027-1.038.08.551.026 1.25.027.389.026.828.027-.13.08.243.027.032.027-.34.027.908.027 1.266.08-.39.027-.535.027.941.026 1.087h.027l.08-.681.028-.325.026.633.027.276.027-.503.08-.503.027 1.46.027.617.027-.617.026-.26.08 1.396.028-.47.027.55.026.163.027-.844.08.179.027.162.027.033.027.454.026.697.081-.665.027-.94.027.778.026-1.33.027-.049.08-.324.027-.422.027.39.027.518.027-.324h.08l.027.454.027.698.027-.341.026-1.752.08.454.027-.292.027.292.027-.39.027-.373.08.098.027-.26.027 1.639.053 1.038.08.146.027.227.027.065.027.893.027.227.08.178.027-.535.027.697.027-.795.027-.94.08.21h.027l.026 1.152.027-.665.027-.86.08-.032.027-.39.027-.032.027-.568h.107l.027 1.087.026-1.314.027-.373.027.227.08.033.027.34.027-.535.027.064.027-.713.08-.179.027-.064.027-.195.026-.065.027-1.07.08.42.027-.032.027.325.027-.097.027.616.08.422.027-1.07.027-1.136.026.064.027-.357.08-.486.054-.065.027-.13.027-.324.08.194.027-.227.027-.422.027-.405.026-.033h.08l.028.893.026.26.027-.163.027-.227.08.486.027-.519.027-.162.027.487.026-.016.08.259.028-1.152.027-.065.026-1.509.027-.762.08-.762.027.665.027.243.027.227.027.26.08-.455.027.228.027-.893.026.73.027 1.46h.08l.027.942.027.421.027-.13.027.455.08-.357.027-.162.027-.195.027.454.026.065.08.682.027-.13.027-.957.027-.714.027-.747.081-.032.027-1.152.027-.552.027.487.027 1.963.08-.357.027-.584.026-.357.027-.162.027-.6.08.34.027-.762.027.892.027.763.027-1.055.08-.032.027-.438.027-.195h.026l.027-.162.08-.325.027-.438.027.325.027-1.022.027-.406.08-.162.027.276.027.73.026-.065.027 1.022.08-.422.027-.535.027 1.525.027.292.107-.26.027.13.027.097.027-.81.026 1.184h.08l.027-.309.027.828.027.486.027.357h.08l.054-.713.027-.91.026.682.08.13.027.033.027.486.027.746.027.73h.08l.027-.454.027.52.027-.585.027.52.08-.26.027.795h.026l.027 1.055h.027l.08.275.027-.34.027-.99.027.438.027-.243.08-.292.027-.584.027-.374.026-.194.027.795.08.389.028.065.026-1.168.027-.487.027-.292h.08l.027-.227.027.26.027.616.026-.94.08-.73.028-1.85.026.892.027-.26.027-.86.08-.032.027.535.027-.665.027.406.027 1.216.08-.567.027-.99.027.698.026.032.027.114.08.324.027-.227.027-.21.027.762.027.454.079-.162.027-.065.026.373.027.357.027.032.08-.065.027.39.027-.26.027.487.027 1.152.08-.098.027-.405.027.194.026.082.027.422.08-.422.027-.893.027-.486.027.227.027.097.08-.487.027-.324.027.487.026.746.027-.065.08-1.136.027.227.027.098.027.487.027-.552.08-.195.027.13.027.503.027-.438.026.552.08.356.054.26.027.682.027.778.08-.292.027.682.027.373.027-.13.026.292h.08l.027.406.027-.227.027.324.027 1.038.08-.405.027 1.038.027-.438.027 2.693.027-.503.08.86.027 2.288.026-1.542.027.373.027-.94.08-.471.027-.86.027.828.027.876.027-.909.08-.811.027-.033.027.033.026.373.027-1.282.08-.567.027.778h.027l.027 1.671.027.682.08-.714.027-1.898.027 1.054.027.617.026-.503.08-.876.028.162.026-.34.027-.195.027-1.071.08-.033.027-.632.027-.179.027-1.833.026-.455.08.73.028-1.021.026.86.027-.438.027-1.315.08.86.027.503.027 1.768.027-1.768.027.649.08-.779.027-.584h.027l.026-1.087.027.455.08-.958.027-.584.027.893h.027l.027-.47.08-.86.027-.926.027.86.026-.86.027.374h.08l.027.292.027-1.298.027.665.027-2.044.08-.974.027.747.027.68.027.877.026-.162.08.194.027.098.027 1.2.027 2.434.027-1.233.08.13.054-.13.027-.925.026.373.08-.665.027-.373.027.6.027-.795.027 2.044h.08l.027.179.027.032.027-.21.027.73.08-.065.027-.487.026-1.541.027-1.022.027-1.59.08.324.027-.13.027-1.038.027.617.027.389.081-.324.027-.033.027 1.493.026-2.028.027-.487.08.292.028.633.026-1.055.027-.406.027-1.135h.08l.027.811.027-.211.026-1.785.027.439.081-1.558.027.405.027-1.443.026-.017.027-.113.08-2.596.027 1.769.027 1.41.027-1.638.026.065.081-1.492.027.746.027 1.022.026.86.027 1.574.08.843.027-3.05.027 1.947.027 1.817.027.536.08-1.444.027-.438.027-1.46.026.373.027 1.898.08.714h.027l.027 1.022.027-1.266.027-2.012.08-.81h.027l.027-1.948.027-.178.026-.438.08-.552.027-.795.027.633.027 1.022.027-1.638.08-.293.027-1.46.027.958.027-1.834.026.146.08-.016.028-3.18.026 2.677.027 1.687.027-2.482.08.503.027 1.574.027-.195.027-1.168.027-.016.08.844.027-1.2.026.29.027 2.792.027-1.899.08-.47.027.714.027 1.135.027 1.428.027-.779.08.016.027 2.06.026-.096.027-1.931.027.487.08 1.54.028-.583.026-.195.027-2.888.027-2.612.08.617.027 1.25.027.713.026-1.38.027-.827.08-1.249.028 2.223.026-2.142.027 1.071.027-.941.08-2.628.027 2.872.027-2.515.026.08h.027l.081 3.619.027-.828.027-.73.026 1.103.027-1.411.08-.519.026 2.417.027.617.026-.308.027-1.801.08 1.119.028.34.026-1.216.027.941.027-1.136.08.682.054 2.887.027.617.026-.34.081.308.027-.552.027.649.026 1.525.027.73.08-.73.027-.098.027-1.476.027.568.027 1.493.08.195.027.794.053-2.239.027-.146.08.455.027 1.882.027-.033.027-1.573.027.486.08-.243.027-.892.027.535.027 1.687.026-1.12h.08l.027 1.25.027 1.363.027 1.168.027-.26.08-1.654.027-1.022.027 1.33.027 1.006.026-2.093.08 1.444.027 1.703.027-.487.027 2.24.027.746.08.162.027-1.136.027-.99.027 1.153.027-.698h.08l.027-1.33.026.275.027-1.07.027-1.104.08.065.027.536.027-.73.027.292h.027l.08-1.234.027-.275.026-1.152.027-.244.027 2.629.08-1.671.027-.585.027 1.866.027.925.027 1.493.08-.666.027.925.027.276.026-1.93.027 1.622.08-1.558.028.6.026.098.027-1.59.027-.243.08.503.027.892.027.535.026-2.06.027.114.08 1.022.028-1.542.026.584.027-.73.027-.827.08-.406.027.308.027-.518.027.47.026.665.081-1.395.027-.162.027-.179.026.243.027.536h.08l.027-1.266.027-.551.027-1.233.026 1.233.081-.406.027-1.736.027 1.006.026.21.027 1.25.08-5.386.027.795.027-.357.027 2.11.027 4.315.08.405.027-.584.027.179.027.714.026-.033.08-4.461.027 3.99.027-1.379.027-1.8.027-.39.08-2.433.027.811.027 2.223.027 2.352.026 1.38.08 1.751.027 1.607.027-2.11.027.195.027-.47.08-1.444.027-1.655.027-2.353.027 1.298.027.179.08.032.028 2.385.027.34.026 1.77.027-.18.08-.632.027-3.066.027-.374.027-.227.027 1.704.08-.811h.027l.027-1.574.026 3.39.027-1.946.08-1.412.027-1.93.027-3.39.027-4.982.027 2.985.08 2.045.027-3.489.027-2.109h.026l.027-.94.08-3.067.028-.957.026-.227.027-1.736.027 2.466.08.568.027-1.59.027.681.027-1.298.026-.52.08-.94.028-4.17.027-1.038.026-1.833.027.73.08.762.027.05.027.145.027-.016.026-.811.081-.536.027-.73.027 2.58.026-.016.027 2.563.08 1.817.027-.584.027.795.027-.892.027-.795.08-1.396.027-.194.027-1.51.027.098.026 1.834h.08l.027.957.027 2.58.027.908.027.405.08.39.027-1.85.027 2.256.027 3.114.027-.292.08-1.914.027 2.628.026.828.027-.373.027 1.298.08-.13.027-2.775.027-.973.027.535.027 1.672h.08l.027-3.91.026 1.736.027 1.59.027-1.055.08-.568.027.681.027 2.126.027 1.054.027.357.08-2.45.027.244.027 1.573.026-2.644.027.99.08-.211.027 2.352.027-1.606.027-.844.027.6.08 1.023.027.86.027-7.674.026 1.12.027.518.08.293.027.794.027 1.347.027-.73.027.292.08-.73.026-.795.027-.146.026 1.817.027 1.93.08.601.027-.422.027-.649.027 1.054.027.017.08-1.039.027-1.2.027-.325.026 1.071.027 1.866.08-1.768.028.99.026.697.027-.34.027 1.151.08-1.33.027 1.606.027 1.622.027.195.026.552.08-.033.028.13.026.032.027 2.856.027-.844.08-1.947.027.13.027-.876.027-.503.026.746.081 1.558.027.21.027-.843.026 2.807.027 1.379h.08l.027 1.59.027 3.098.027-2.044.027-2.482.08 3.472.027-.973.027-1.185.027 2.758.026 1.915.08.746.027-.292.027 1.46.027-1.492.027-1.007.08-1.314.027-.843.027.47.027 2.272.026-.763.08-1.622.027-.974.027 1.039.027-2.353.027-.065.08-.957.027.909.027.048.027-.681.027.065.08.13.027-.844.026-2.369.027 1.542.027-1.639.08.779.027 1.947.027 2.174.027-.568.027 1.2.08-.6.027-2.012.026 1.006.027 1.8.027.05.08.99.027-.536.027-.454.027-.828.027-2.076.08 2.498.027.844.027.99.026.064.027 1.623.08-1.201.027-1.752.027.795.027-1.93.027-.471.08-1.64.027.666.027-.925.026-.34.027 2.174.08-1.46.027-.65.027-.032.027.325.027-.13.08-.779.027-.568.027-.925.027.633.026 1.525.08.049.028.665.026-.178.027-2.012h.027l.08 1.2.027.536.027.243.027-1.395.026 1.298.08.276.028-.584.027-.422.026-.6.027-1.023.08-.616.027.162.027.243.027-2.044.027.65.08.016.027.567.027-1.184.026 1.07.027 2.142.08-.032.027-.503.027 1.07.027.698.027-.73.08-.357.027-.778.027.713.027.455.026 1.25.082 1.037.027-1.768.026-.487.027 1.33.027-1.849.08.503.027.827.027.958h.027l.027-.438.08-.179.027-.227.027.243.026-.697.027-.422.08-1.363.027-.178.027.665.027-.454.027.486.08-.276.027-.746.027-.551h.026l.027-1.039.08-.114.027 1.363.027.455.027 1.2.027 1.428.08-.698.027-.795.027.86.027 1.039.026.86.08-.033.027.617.027.178.027-1.93.027.957.08 2.222.027 1.298.027-.097.027.892h.026l.08.6.027-.697.027-.179.027.828.027-.033.08-.324.027-.876.027.973.027.033.026.113.08-.195.028-1.736.026 1.298.027-.86.027-1.038h.08l.027.292.027-.73.027-.99.027.341.08.308.027-.113.026.47.027-.227.027-.81.08 1.07.027-.162.027 1.054.027-1.606.027-.665.08-.081.027 1.379.027.73.026.454.027-.405.08-.033.028-.552.026 1.2.027 1.137.027-.455.08.357.027-1.817.027.13.027-.957.026-.325.08-.065.028-.064.026.21.027-.243.027 1.266.08.584.027-.26.027.34.027.098.027-.438.08-.081.027-.747.027-.21.026.649.027.21.08-.486.027.422.027 2.709.027.422.027-.503.079.276.027-.114.026-.503.027.682.027 1.249.08.665.027-.584.027-1.574.027.6.027-.13.08-.648.027-.357.027.632.026-.438.027-1.135.08.568.027.032.027-1.022.027.584.027.6.08-.065.027-1.898.027 1.217.026-.633.027-1.151.08.47.027-1.492.027-.828.027-2.353.027.503.08 1.882.027-.291.027.778.027-.681.026-1.233.08.551.027-2.287.027.357.027-2.531.027.421.08-.713.027-.584.027.486.027 2.79.026-1.102.08-.114.027-.422.027 1.314.027.39.027-2.628.08-.974.027.714.027-.21.027 2.368.027-1.38.08.31.027.794.026-.681.027-1.169.027.503.08.357.027-1.216.027-.763.027.292.107-1.882.027-1.168.027-.292.026.26.027.486.08-.065.028-.697.053 1.622.027.357.08.178.027.941.027-1.281.027-.78.026-1.184.08.52.028-.081.026-1.136.027.925.027.957.08-.032.027.908.027-1.022.027-.097.026-1.201.08.908.028-.86.027.682.026-.795.027-1.379.08.211.027-1.136.027-1.265.027 1.038.027-1.2.08-1.769.027 1.136h.027l.026-.925.027.568.08-.195.027-1.784.027.746.027-.957.027 2.741.08-1.881.027-.974.027 1.704.026.81.027 1.201.08.082.027-1.753.027.99.027 1.687.027.536.08-.714.027-1.12.027.682.027.649.026-.39.08-.567.027-2.11.027-.227.027-.113.027.876.08-1.314.027-.957.027.616.027.114h.026l.08-.552.027-.065.027-1.217.027-.227.027.146h.08l.027.633.027-.146.027 1.379.027.844.08-.844.027-.52.026.066.027 1.07.027.146.08.114.027 1.266.027 1.314.027-1.023.027-.94.081.389.027-.6.027-.26.026-1.314.027.665.08.324.028 1.72.026-.389.027.194.027 2.32.08 2.791.027-1.93.027.584.027.308.026-.39.081-1.119.027-.47.027 2.255.026-.065.027-.682.08-.746.027-.373.027 2.71.027.389.026.275.081-1.379.027 3.343.027 2.368.026-1.103.027 1.866.08-.714.027 3.212.027.957.027-1.784.027-1.525.08.13.027-.536.054 1.395.026.065.08-1.038.027 2.434.027-2.11.027.26.027-1.168.08.633.027-.049.027 2.206.027-1.168.026-1.12.08-.664.027.908.027.422.027-1.103.027.422.08.097.027.6.027-.438.027 1.785.027-.73h.08l.027-1.233.026 1.411.027-.454.027-1.07.08.794.027 1.12.027.616.027 1.168.027 1.412.08-.098.027 1.736.026-1.476.027.811.027-1.087.08-.162.027-.243.027.243.027-.763.027.13.08.114.027-2.174.027.519.026-.6.027-.585.08.244.028-.568.026 1.266.027 1.378.027-1.054.08.357.027.584.027-1.314.026-1.769.027.714.08-.746.028-.86.026-2.158.027 1.38.027.21.08.974.027-.033.027.39.027.876.026.568.08-.13.027.908.026-.843.027.568.027-.455.08-.39.027.99.027 1.071h.026l.027.52.081.13.027-1.542.027-.52.026.65.027-1.46.08-.552.027-.178.027.73.027-.195.026-.081.081-.454.027-.909.027.779.026-.73.027-.39.08-.113.027-.52.027-.502.027-1.071.027-.065.08.227.027.844.027-.876.026 1.022.027-.844.08-.373.027-.503.027 1.038.027-.146.027-.422.08-.26.027-.242.027.26.027-1.185.026.26h.08l.027-.195.027-1.947.027 1.444.027-.714.08.146h.027l.027-.909.027.942.026-.455.08.244.028 1.833.026-2.077.027-.681.027.276.08.227.027.405.027-.016.027-1.136.027-.794.08 1.087.027 1.638.026 1.314.027.779.027.357h.08l.027-.99.027-.21.027.486.027-1.8.08-1.753.027-.681.026.08.027 1.153.027-.763.08.357.027-.779.027.763.027 1.411.027-.844.08.633.027-.778.027.438.026-.568.027-2.418.08-.843.028-2.158.026.146.027-3.52.027 2.53.08-3.91.027-1.119.027-2.32.026 3.78.027-1.363.08.811.028-1.395.027-.876.026-1.67.027.015.08.698.027.762.027 2.37.027-1.136.026-.633.081 1.07.027-1.281.027.746.026-1.509.027-2.303h.08l.027-.066.027.958.027-1.038.026-.974.081.454.027.714.027-.114.027 1.59.026-.551.08-1.59.027-.195.027-1.314.027-2.255.027 1.866.08 1.087.027 1.152.027.146.027.26.026-1.315.08-2.58.027 1.055.027 1.087.027 1.606.027 1.46h.08l.027 1.185.027.973.027-.438.026 1.055.08-1.509.028.357.026-.276.027.47.027.487.08.227.027-2.011.027 1.54.027 3.132.027-1.298.081-3.31.027-2.011.027-.065.026 1.428.027-.65.08.065.027.65.027-1.883.027 1.558h.027l.08-.016.027-.179.027-.73.026-.649.027.811.08-.892.027-.616.027-.536h.027l.027 1.298.08.162.027.276.027 1.25.027.308.026-.876.08.162.028.746.026-.973.027-.958.027 1.477.08-.779.027-.778.027-1.007.027.082.026-.99.08-.616.028 1.849.027.714.026-.325.027 1.25h.08l.027-.309.027-1.427.027-.292.027-.374h.08l.027 1.152.027.487.026.292.027-.6h.08l.027.162.027-1.038.027.308.027-.973h.08l.027-.114.027.681.027 1.282.026.762.107.585.027-1.071.027-1.022.027-.65.08-.762.027-.762.027.47.027-.08.027 1.638.08-.26.027 1.087.026.146.027.876.027-.81.08-.196.027-.616.027-.146.027.908.027.309h.08l.027.925.026-.91.027-.113.027-.324.08-.827.027.291.027.455.027.892.027-.844.08.584.027-1.087.027.52.026.6.027.26.08.08.027 1.51.027 2.32.027.162.027.243.08 1.347.027-.292.027-1.022.026-.293.027-.746.08.26.026-1.055.027.276.027-.665.027.827.08-.454.027 1.914.027-1.249.026-.698.027-2.044.08-.113.027-1.055.027.86.027.26.027-1.12.08-.032.027.292.027-.373.026-.146.027-.05.08-.453.028.616.026.178.027-.746.027-.048.08-.341.027.47.027-.243.027.049.026-.86.08-.114.028-.503.026-.275.027.713.027-.486.08-1.185.027.065.027-.13.027-1.022.026.406.081.308.027.455.027-.568.026.697.027-.632h.08l.027.113.027-1.995.027-1.039.027-1.72.08 1.169.027.811.027 1.379.027-.325.026-.064.08-.796.027 1.266.027-1.152.027.795.027-1.055.08-.048.027.746.027.6.027-.665.027.941.08-1.168.027.39.026-.13.027-.666.027 1.104.08-.925.027.665h.027l.027-.519.027-.779.08-.6.027-.178.026.259.027-.697.027.21.08-.243.027.584.027-.227.027.227.027-.827.08-.503.027-.633.027.162.026.666.027 1.752.08-.714.027-.552.027.909.027-.747.027 1.38.08.048.027 1.006.027.34.026.634.027-.504.08.114.027 1.2.027 1.25.027.308.027-.39.08-.08.027-.114.027-1.736.026-.21.027.129.08-.584.027-.276.027.276.027-.438.027-1.217h.08l.054.779.027 1.33.026-.162.08-.227.028.746.026.925.027-.552.027 2.32.08-.405.027-.536.027-.584.027-.13.026-.178.08-.714.028-.698.027-.924.026.73.027-.341.08-.13.027-.08.027-.098.027.957.027 1.136h.08l.027-.487.027-.633.026-.065.027-.227.08.114.027.892.027 1.623.027.259.027-1.152.08.811.027-.908.027.52.027.55.026-1.265.082-.438H123l.026-.454.027.551.027-.145.08-.504.027 1.088.027-1.688.027-.519.027-.146h.08l.027-.195.027-.048.026.032.027-.21.08.534.027.86.027.211h.027l.027.179.08-.454.027-.406.027-.146.026-.21h.027l.08.096.027-.292.027-.26.027-.016.027.568.08-.08.027.616.027.714.027.519.026-.47.08 1.151.027.73.027-.26.027-.08.027-.536.08.179h.027l.027-.373.027-.244.026-.568.08.909h.027l.027 1.298.027 1.217.027-.211.08-.033.027-.47.027-.179.027.633.027-.454.08-.373.027-.146.026-.292.027.99.027-.601h.107l.027-.292.027.422.027 1.606.08.194.027.617.053-.227.027.487.08-.974.027.698.027-.617.027-.049.027-.113.08.21.027.228.027.828.026-.504.027.082h.08l.028.422.026-.309.027-.535.027-.227.08-1.59.027.276.027.324.027-.422.026-.551.08.551.028.373.026.633.027.957.027.763.08.227.027-.665.027.08.027.13.026-.648.081-.552.027-.86.027.909.026-.763.027.228.08-.082.027-.178.027-1.038.027.064h.027l.08-.292.026.455.027-.779.053-1.59.08.535.027.065.027.86.027-.227.027-1.103.08-.666.027.682.027-.438.026-.162.027.324.08-.195.027.211.027-.016.027.049.027-.73.08.113.027.033.027-.698.027-.065.026 1.834.08.34.027.309.027-.195.027.73.027 1.395.08.373.027.876.027-.632.027-.876.026 1.119.08.244.027-.633.027 1.833.027-.373.027-.13h.08l.027 2.547.027-.811.027-.065.026.276.08-.146.028.438.026-.925.027-.195.027 1.542.08.616.027-.405.027.697.027-1.281.027-.325.08.86.027.049.026 2.725.027.99.027 1.898.08.097.027 1.152.027-1.184.027-1.022.027.227.08-.162.027-.114.027.552h.026l.027 3.829.08-1.671.028-.033.026-.162.027-.844.027.162.08-.73.027-.08.027-.698.027.632.026-.713.08-.065.028.405.026 1.347.027-.276.027-.146.08.649.027.13.027-.552.027 2.11.026-1.785.081.6.027.146.027-.698.026-.162.027-.179.08.682.027 1.606.027-.097.027.86.027.957.08.892.027-1.07.027 1.281.026-.146.027-1.12.08-.486.027-1.233.027.908.027-.048.027.357h.08l.027 1.2.027.633.027 1.574.026-.974.08-.357.027.844.027-.844.027-.048.027-.39.08-.34.027-.276.027-2.58.027 1.038.026-.291.08-.552.027-.73.027-.438.027.357.027-.422.08-.227.027.649.027-.536.027-.194.027.648.08-.307.027.097.026.503.027.292.027.097h.08l.027.665.027-1.054.027-1.201.027-.179.08.374.027-1.444.026-.162.027.292.027-.179.082.227.027-.324.026.568.027.26.027 1.102.08-.308.027 1.087.027-.454.026-.681.027 2.4h.08l.028.406.026-1.2.027-.146.027.21.08-.6.027.666.027 1.492.027-.243.026-.665.081-.244.027-.324.027.47h.026l.027.114.08.827.027-.21.027.843.027.616.026-.276.081-.259.027-.617.027.844.026.39.027-.195.08.21.027-.697.027.941.027.584.027-.649.08.617.027.827h.027l.027.195.026.162.08-.486.027.94h.027l.027-.632.027.097.08-.6.027-.309.027.812.027-.39.026-1.736.08-.519.027.73.027.325.027-.812.027-.356h.08l.027.162.027.584.027-1.428.027-1.006.08.536.027.016.026-1.168.027.292.027-.828.08-1.103.027.86.027.617.027.535.027-.276.08-.26.027.941.026.585.027-.471.027.179h.08l.027-.584.027.519.027.194.027-.324.08.113.027-.584.027-.6.026-.422.027.13.08-.746.028 1.573.026.114.027.52.027.827.08-.179.027-.146.027-.616.026-1.396.027.163.08.616.028-.324.026 1.622h.027l.027-.487.08-.227.027.325.027-.909.027-.178.026.649.08-.05.027.552.026.844.027-.113.027-1.233.08-.34.027-.31.027.147.027-.698.026-.357.081.357.027-.308h.027l.026 1.509h.027l.08-.098.027-.08.027-.18.027-.307.026-.293.081.617.027-.146.027-.73.026-.535.027-.471.08.373.027-.26.027-.048.027.454.027.114.08.616.027-.843.027-1.071.027-.876.026.551.08.34.027-.534.027.34.027.292.027-.292h.08l.027-.292.027-1.152.027.341.026.195.08.827.027 1.152.027.065.027-.325.027.082.08.26.027.664.027-.08.027-.715.027.13.08-.097.027.892.026-1.103.027.584.027-.243.08.34.027-.779.027-.308.027-.503.027.098.08-.065.027.568.026.99.027.194h.027l.08-.438.027-.892.027-.098.027-.227.027-.324.08.503h.027l.027-.34.026-1.299.027.568.08-.227.027-.114.027.081.027.6.027-.6.08.325.027-.406.027 1.574.026.016.027-1.07.08-.163.028.033.026-.211.027-.974.027.146.08.114.027.357.027-.52.027-.26.026-.989.08.86.028.114.027.422.026-.309.027-.08.08-.325.027.227.027-.633.027-.34.026.113h.081l.027 1.265.027-.405.026.876.027.146.08.195.027.519.027.616.027.146.026.974.081-.341.027.049.027.454.027-.097.026-.65.08-.162.027-.6.027.6.027-1.005.027.421.08-.827.027.195.027-1.688.027.65.026.145.08-.227.027-1.314.027-.292.027-.13.027-.535h.08l.027-1.347.027-.99.027.325.027.6.08-.032.027.503.026-.097.027.892.027-.049.081-.13.027.585.027.34.027-.195.027.487.08.114.027-.146.027.146.026.714.027-1.444.08 1.022h.027l.027.178.027-.503.027-.324.08.324.027-.405.027.714.026-.357.027-.438.08-.065.027-.795.027-.195h.027l.027-1.314.08 1.152.027.925.027-.195.027-.747.026 1.169.08-.795.028-.714.026-.795.027-.032.027-1.298.08.584.027-.957.027 1.249.027 1.151.026-.73.08-.064.028 1.67.027.033h.026l.027-.21.08-.78.027-.243.027-.26h.027l.027-.99.08-1.264.027-1.493.027.454.026.811.027-1.184.08-.617.027-.113.027-.73.027-2.271.027 1.979h.08l.027-.795.027 1.363.027-.146.026-1.071.08.438.027-.016.027-1.655.027.487.027-1.785.08.373.027 2.06.027-.648.027 1.119.027 2.222.08.325.053.649.027-.536.027 1.071h.08l.027 1.428.027-.94.027.55.027-.032.08-.892.027-1.25.026-.178.027.974.027-.584.08 1.444.027.6.054-.065.027 2.044.08-.811.027-.99.027-.357.026.13.027-.032.08-.682.027-.357.027-2.109.027.779.027-.617.08-.308.027-.616.027.844.026 1.038.027-.455.08-.227.026-.39.027-1.07.027.876.027-1.168.08.909.027-.162.027.324.026.876.027-.195.08-.324.027-.47.027-.163.027.033.027-.406.08.39.027.324.027 1.136.027-.341.026-.811.08.21.028 1.33.026.585.027-.113.027 1.314.08.502.027.666.027.94.027-1.022.026-.519.08 2.142.028-.503.026.714.027-1.022.027-1.428.08 1.492.027.877.027-.65.027-.94.027.308h.08l.027-1.136.027-.178.026.114.027-.228.08.941.027 1.347.027 1.655.027-.925.027 1.622.08-.405.027.908.027.747.027-1.736.026.243.08-.584.027-.762.027.113.027.292.027-1.233.08 1.85.027.6.027-.682.027.682.027 1.038.08-2.417.027.47.026 1.12.027-.65h.027l.08-1.573.027-.438.027-1.07.027 2.092.027 1.233.08.925.027-.86.026-.795.027-.032.027-.05.08.407.027-.763.027-.032.027-.893.027-.097.08-.73.027.535.027.584.026-.438.027-1.282.08-.519.027 1.185.027.795.027-.795.027-.957.08 1.054.027-1.395.027.113.026.6.027.211.08-.486.027.39.027-1.088.027-.925.027-.519.08-.535.027 1.103.027 1.687.027.146.026-.048.08.6.027-1.07.027.518.027-.405.027-.568h.08l.027.957.027.292.027.341.026-.552.08-.08.028 1.686.026.114.027-1.687.027-.925.08 1.103.027-1.087.027.26.027-.373.027.568.08-1.087.027-.714.027-.228h.026l.027-.713.08 1.022.027-.406.027.584.027.6.027-.259h.08l.027-.714.027-1.168.026.73.027.26.08-.163.027.714.027-.714.027.05.027.989.081-.503.027-.309.027 1.039.027 1.152.026-.487.08.47.028.633.026.244.027.178M-2.5 146.82l.456 3.18 2.169-16.5.75 12.8 4.501-15.834.403 4.575 3.617-18.008 1.446 12.265 1.018-6.44.349 4.477 3.35-19.68.804 16.046 2.197-5.419.883 9.605 4.876-29.674 1.555 10.773 2.76-11.324.295 8.81.267-4.982.857 2.061 1.125-13.158 2.17 24.125.778-10.821.402 8.55L38.6 99.592l2.41 19.323 2.68-14.472 1.903 6.944 1.85-6.749 1.257 10.545 1.742-12.265 1.822 8.664.75-6.328 1.609 10.238 1.982-5.435 3.08 14.114 5.521-12.508 1.5 7.576.992-6.538.99 4.446.724-1.996.884 10.627 7.476-32.237 2.437 15.591 2.439-14.277.776 11.195 2.065-32.838 4.34 30.712.75-10.35.803 8.793 1.474-10.887 4.983 13.093 3.832-24.514.402 5.143.723-6.636 3.324 21.967 3.643-14.195.187 5.175.295-4.948.348 2.011 1.58-20.815.939 11.016 2.573-9.734 1.286 9.41 3.402-16.062.616 7.252.402-4.64.375 5.16 2.225-4.544 2.545 7.642 1.393-7.009 3.376 22.21 1.285-7.981 1.85 8.533.911-7.333 1.553 3.7 3.966-7.593.536 4.607 3.618-15.883 3.509 13.677 3.376-8.307.59 4.283" fill="none" stroke="#ff2800" stroke-width="1.0007712"/></svg>