<?xml version="1.0" encoding="UTF-8" standalone="no"?>
<!DOCTYPE svg PUBLIC "-//W3C//DTD SVG 1.1//EN" "http://www.w3.org/Graphics/SVG/1.1/DTD/svg11.dtd">
<svg width="100%" height="100%" viewBox="0 0 150 150" version="1.1" xmlns="http://www.w3.org/2000/svg" xmlns:xlink="http://www.w3.org/1999/xlink" xml:space="preserve" xmlns:serif="http://www.serif.com/" style="fill-rule:evenodd;clip-rule:evenodd;stroke-linecap:round;stroke-linejoin:round;stroke-miterlimit:1.5;">
    <g transform="matrix(1.27069,0,0,1.27069,-20.464,-37.3797)">
        <g transform="matrix(0.704391,0.709812,-0.709812,0.704391,129.482,13.7383)">
            <path d="M58,52.25C58,45.489 52.511,40 45.75,40L21.25,40C14.489,40 9,45.489 9,52.25L9,103.75C9,110.511 14.489,116 21.25,116L45.75,116C52.511,116 58,110.511 58,103.75L58,52.25Z" style="fill:white;stroke:rgb(255,40,0);stroke-width:0.43px;"/>
            <g transform="matrix(0.909281,0,0,0.909281,68.2219,-70.1296)">
                <g id="heart" transform="matrix(0.213772,0,0,0.213772,-67.3003,119.282)">
                    <path d="M135.928,244.344C135.928,244.344 140.258,217.806 148.618,209.446C156.977,201.084 171.691,196.756 183.515,196.756C195.339,196.756 210.053,201.087 218.413,209.446C226.775,217.806 231.103,232.52 231.103,244.344C231.103,256.168 224.758,272.896 218.413,279.241C212.068,285.589 205.726,288.759 199.378,295.107C193.033,301.452 189.86,301.452 183.515,307.794C177.17,314.142 173.998,317.311 167.653,323.659C161.308,330.004 151.79,342.694 145.445,355.381C139.1,368.071 135.928,387.106 135.928,387.106C135.928,387.106 132.755,368.071 126.41,355.381C120.065,342.694 110.548,330.001 104.203,323.659C97.858,317.311 94.685,314.142 88.34,307.794C81.995,301.449 78.823,301.449 72.478,295.107C66.133,288.759 59.788,285.589 53.443,279.241C47.098,272.896 40.753,256.168 40.753,244.344C40.753,232.52 45.083,217.806 53.443,209.446C61.802,201.084 76.517,196.756 88.34,196.756C100.164,196.756 114.878,201.087 123.238,209.446C131.601,217.806 135.928,244.344 135.928,244.344" style="fill:rgb(255,40,0);fill-rule:nonzero;"/>
                </g>
                <g id="red-numbers" serif:id="red numbers" transform="matrix(0.213772,0,0,0.213772,-67.3003,119.282)">
                    <g>
                        <path d="M207.78,111.832L197.66,111.832L197.66,22.072L118.02,22.072L65.22,111.832L65.22,140.872L157.84,140.872L157.62,176.072L197.66,176.072L197.66,140.872L207.78,140.872L207.78,111.832ZM106.36,111.832L141.34,51.332L157.84,51.332L157.84,111.832L106.36,111.832Z" style="fill:rgb(255,40,0);fill-rule:nonzero;"/>
                    </g>
                </g>
            </g>
        </g>
        <g transform="matrix(0.954966,0.296715,-0.296715,0.954966,75.9471,0.0385114)">
            <path d="M58,52.25C58,45.489 52.511,40 45.75,40L21.25,40C14.489,40 9,45.489 9,52.25L9,103.75C9,110.511 14.489,116 21.25,116L45.75,116C52.511,116 58,110.511 58,103.75L58,52.25Z" style="fill:white;stroke:rgb(255,40,0);stroke-width:0.43px;"/>
            <g transform="matrix(0.194379,0,0,0.194379,7.12998,38.331)">
                <path id="heart1" serif:id="heart" d="M135.928,244.344C135.928,244.344 140.258,217.806 148.618,209.446C156.977,201.084 171.691,196.756 183.515,196.756C195.339,196.756 210.053,201.087 218.413,209.446C226.775,217.806 231.103,232.52 231.103,244.344C231.103,256.168 224.758,272.896 218.413,279.241C212.068,285.589 205.726,288.759 199.378,295.107C193.033,301.452 189.86,301.452 183.515,307.794C177.17,314.142 173.998,317.311 167.653,323.659C161.308,330.004 151.79,342.694 145.445,355.381C139.1,368.071 135.928,387.106 135.928,387.106C135.928,387.106 132.755,368.071 126.41,355.381C120.065,342.694 110.548,330.001 104.203,323.659C97.858,317.311 94.685,314.142 88.34,307.794C81.995,301.449 78.823,301.449 72.478,295.107C66.133,288.759 59.788,285.589 53.443,279.241C47.098,272.896 40.753,256.168 40.753,244.344C40.753,232.52 45.083,217.806 53.443,209.446C61.802,201.084 76.517,196.756 88.34,196.756C100.164,196.756 114.878,201.087 123.238,209.446C131.601,217.806 135.928,244.344 135.928,244.344" style="fill:rgb(255,40,0);fill-rule:nonzero;"/>
                <g>
                    <path d="M206.13,22.072L167.19,22.072L132.65,83.672L113.51,83.672L113.51,22.072L73.47,22.072L73.47,176.072L113.51,176.072L113.29,117.552L132.65,117.552L163.67,176.072L205.91,176.072L164.33,99.072L206.13,22.072Z" style="fill:rgb(255,40,0);fill-rule:nonzero;"/>
                </g>
            </g>
        </g>
        <g transform="matrix(0.992536,-0.121949,0.121949,0.992536,27.9123,9.94582)">
            <path d="M58,52.25C58,45.489 52.511,40 45.75,40L21.25,40C14.489,40 9,45.489 9,52.25L9,103.75C9,110.511 14.489,116 21.25,116L45.75,116C52.511,116 58,110.511 58,103.75L58,52.25Z" style="fill:white;stroke:rgb(255,40,0);stroke-width:0.43px;"/>
            <g transform="matrix(0.171638,0,0,0.171638,10.0295,42.7989)">
                <path id="diamond" d="M136.167,188.451C136.167,188.451 156.133,221.727 179.426,245.02C202.719,268.313 235.995,288.279 235.995,288.279C235.995,288.279 202.719,308.244 179.426,331.537C156.133,354.83 136.167,388.106 136.167,388.106C136.167,388.106 116.202,354.83 92.909,331.537C69.619,308.244 36.34,288.279 36.34,288.279C36.34,288.279 69.616,268.313 92.909,245.02C116.202,221.73 136.167,188.451 136.167,188.451" style="fill:rgb(255,40,0);fill-rule:nonzero;"/>
                <g>
                    <path d="M75.034,22.072L32.574,22.072L0.674,40.992L0.674,72.892L32.574,57.712L32.574,140.212L0.674,140.212L0.674,176.072L106.934,176.072L106.934,140.212L75.034,140.212L75.034,22.072Z" style="fill:rgb(255,40,0);fill-rule:nonzero;"/>
                    <path d="M140.154,70.032L139.934,127.892C139.934,164.412 171.174,176.072 208.574,176.072C249.274,176.072 272.594,164.192 272.594,130.312L272.814,67.832C272.814,36.152 242.894,22.072 207.914,22.072C170.514,22.072 140.154,33.512 140.154,70.032ZM206.154,143.072C196.474,143.072 179.754,140.872 179.754,120.852C179.754,112.052 179.974,93.792 179.974,77.072C179.974,57.052 196.694,54.852 206.374,54.852C216.054,54.852 234.314,58.372 234.314,77.292C234.314,94.232 234.094,113.372 234.094,120.632C234.094,139.552 215.834,143.072 206.154,143.072Z" style="fill:rgb(255,40,0);fill-rule:nonzero;"/>
                </g>
            </g>
        </g>
        <g transform="matrix(0.884977,-0.465635,0.465635,0.884977,-6.7978,33.4813)">
            <path d="M58,52.25C58,45.489 52.511,40 45.75,40L21.25,40C14.489,40 9,45.489 9,52.25L9,103.75C9,110.511 14.489,116 21.25,116L45.75,116C52.511,116 58,110.511 58,103.75L58,52.25Z" style="fill:white;stroke:rgb(255,40,0);stroke-width:0.43px;"/>
            <g transform="matrix(0.194379,0,0,0.194379,7.07848,38.2326)">
                <path id="heart2" serif:id="heart" d="M135.928,244.344C135.928,244.344 140.258,217.806 148.618,209.446C156.977,201.084 171.691,196.756 183.515,196.756C195.339,196.756 210.053,201.087 218.413,209.446C226.775,217.806 231.103,232.52 231.103,244.344C231.103,256.168 224.758,272.896 218.413,279.241C212.068,285.589 205.726,288.759 199.378,295.107C193.033,301.452 189.86,301.452 183.515,307.794C177.17,314.142 173.998,317.311 167.653,323.659C161.308,330.004 151.79,342.694 145.445,355.381C139.1,368.071 135.928,387.106 135.928,387.106C135.928,387.106 132.755,368.071 126.41,355.381C120.065,342.694 110.548,330.001 104.203,323.659C97.858,317.311 94.685,314.142 88.34,307.794C81.995,301.449 78.823,301.449 72.478,295.107C66.133,288.759 59.788,285.589 53.443,279.241C47.098,272.896 40.753,256.168 40.753,244.344C40.753,232.52 45.083,217.806 53.443,209.446C61.802,201.084 76.517,196.756 88.34,196.756C100.164,196.756 114.878,201.087 123.238,209.446C131.601,217.806 135.928,244.344 135.928,244.344" style="fill:rgb(255,40,0);fill-rule:nonzero;"/>
                <g>
                    <path d="M170.16,22.072L102.84,22.072C79.3,21.852 68.74,30.872 68.74,66.072C68.74,88.292 81.06,99.072 104.38,99.072L150.8,99.072L102.4,175.852L145.74,176.072C168.84,142.852 204.04,98.192 204.26,66.072C204.26,30.872 193.48,22.072 170.16,22.072ZM115.82,48.472L156.52,48.472C164.88,48.472 164.88,51.772 164.88,61.452C164.88,68.272 164.22,73.112 156.52,73.112L116.04,72.892C108.12,72.892 107.68,68.272 107.68,61.232C107.68,51.992 107.68,48.472 115.82,48.472Z" style="fill:rgb(255,40,0);fill-rule:nonzero;"/>
                </g>
            </g>
        </g>
        <g transform="matrix(0.630359,-0.776304,0.776304,0.630359,-31.4693,71.753)">
            <path d="M58,52.25C58,45.489 52.511,40 45.75,40L21.25,40C14.489,40 9,45.489 9,52.25L9,103.75C9,110.511 14.489,116 21.25,116L45.75,116C52.511,116 58,110.511 58,103.75L58,52.25Z" style="fill:white;stroke:rgb(255,40,0);stroke-width:0.43px;"/>
            <g transform="matrix(0.19492,0,0,0.19492,7.00493,38.1215)">
                <path d="M167.85,176.072L210.75,176.072L157.73,22.072L115.05,22.072L62.25,176.072L105.15,176.072L115.05,149.232L157.95,149.232L167.85,176.072ZM124.07,119.972L136.39,83.232L148.49,119.972L124.07,119.972Z" style="fill:rgb(255,40,0);fill-rule:nonzero;"/>
                <path id="heart3" serif:id="heart" d="M135.928,244.344C135.928,244.344 140.258,217.806 148.618,209.446C156.977,201.084 171.691,196.756 183.515,196.756C195.339,196.756 210.053,201.087 218.413,209.446C226.775,217.806 231.103,232.52 231.103,244.344C231.103,256.168 224.758,272.896 218.413,279.241C212.068,285.589 205.726,288.759 199.378,295.107C193.033,301.452 189.86,301.452 183.515,307.794C177.17,314.142 173.998,317.311 167.653,323.659C161.308,330.004 151.79,342.694 145.445,355.381C139.1,368.071 135.928,387.106 135.928,387.106C135.928,387.106 132.755,368.071 126.41,355.381C120.065,342.694 110.548,330.001 104.203,323.659C97.858,317.311 94.685,314.142 88.34,307.794C81.995,301.449 78.823,301.449 72.478,295.107C66.133,288.759 59.788,285.589 53.443,279.241C47.098,272.896 40.753,256.168 40.753,244.344C40.753,232.52 45.083,217.806 53.443,209.446C61.802,201.084 76.517,196.756 88.34,196.756C100.164,196.756 114.878,201.087 123.238,209.446C131.601,217.806 135.928,244.344 135.928,244.344" style="fill:rgb(255,40,0);fill-rule:nonzero;"/>
            </g>
        </g>
    </g>
</svg>
