<svg xmlns="http://www.w3.org/2000/svg" fill-rule="evenodd" clip-rule="evenodd" viewBox="0 0 500 500">
  <g transform="translate(-150 150)">
    <path fill="#ff2800" stroke="#fff" stroke-width="1.53644" d="M106.718 280.432h66.225v4.61h-66.225zM108.406 270.445h64.22v9.219h-64.22zM108.48 261.995h71.557v7.682H108.48zM106.827 255.081h66.05v6.146h-66.05zM109.898 251.24h64.452v3.073h-64.452zM110.839 242.79h69.848v7.682h-69.848zM106.945 231.266h67.213v10.755h-67.213zM105.808 227.425h62.148v3.073h-62.148zM105.097 222.048h68.776v4.609h-68.776z"/>
    <text fill="#fff" stroke="#ff2800" font-family="'Arial-BoldMT','Arial',sans-serif" font-size="20" font-weight="700" transform="translate(106.718 316.539) scale(1.53644)">
      2020
    </text>
    <path fill="#ff2800" stroke="#fff" stroke-width="1.53644" d="M212.536 278.896h64.42v6.146h-64.42zM212.339 267.373h68.044v10.755H212.34zM206.23 258.922h65.337v7.682H206.23zM208.301 252.008h67.041v6.146h-67.04zM206.699 245.094h63.458v6.146h-63.458zM211.637 236.644h63.326v7.682h-63.326zM210.432 231.266h71.597v4.61h-71.597zM209.49 224.352h66.298v6.146H209.49zM212.884 217.438h66.324v6.146h-66.324zM209.576 212.06H277.9v4.61h-68.324zM208.09 200.537h63.368v10.755h-63.367zM209.968 192.087h70.749v7.682h-70.749zM206.288 186.71h64.12v4.609h-64.12zM206.173 182.868h65.51v3.073h-65.51zM214.639 171.345h65.357V182.1h-65.357zM207.502 164.431h71.303v6.146h-71.303zM208.138 154.444h69.684v9.219h-69.684zM205.025 145.994h69.604v7.682h-69.604zM211.715 134.47h62.005v10.756h-62.005zM213.165 124.484h68.404v9.218h-68.404zM214.247 112.96h67.817v10.755h-67.817zM205.468 109.12h65.057v3.072h-65.057zM207.594 103.742h61.825v4.609h-61.825zM205 96.828h65.89v6.145H205zM212.602 92.987h67.268v3.072h-67.268zM212.92 86.073h64.112v6.145H212.92zM205.465 79.159h68.064v6.145h-68.064zM206.96 70.708h62.408v7.682H206.96zM209.626 65.33h65.063v4.61h-65.063zM210.481 59.953h62.78v4.61h-62.78zM207.018 51.503h64.463v7.682h-64.463zM206.525 43.052h63.447v7.682h-63.447zM207.32 34.602h63.547v7.682h-63.548zM206.187 29.224h61.902v4.61h-61.902zM205.858 20.774h64.952v7.682h-64.952z"/>
    <text fill="#fff" stroke="#ff2800" font-family="'Arial-BoldMT','Arial',sans-serif" font-size="20" font-weight="700" transform="translate(212.536 316.539) scale(1.53644)">
      2019
    </text>
    <path fill="#ff2800" stroke="#fff" stroke-width="1.53644" d="M317.007 260.459h64.737v24.583h-64.737zM316.619 256.617h68.58v3.073h-68.58zM316.015 251.24h62.309v4.61h-62.31zM310.87 241.253h70.001v9.219h-70zM307.48 237.412h65.99v3.073h-65.99zM314.629 233.57H376.4v3.074H314.63zM316.9 228.193h63.155v4.61H316.9zM311.926 224.352h70.621v3.073h-70.62zM310.553 220.511h62.309v3.073h-62.31zM315.887 213.597h63.541v6.146h-63.54zM309.19 197.464h65.574v15.365H309.19zM308.105 190.55h67.196v6.146h-67.196zM310.485 183.637h66.036v6.145h-66.036zM316.743 178.259h67.51v4.61h-67.51zM315.35 174.418h71.032v3.073H315.35zM315.525 169.04h66.813v4.61h-66.813zM308.399 162.126h68.208v6.146H308.4zM315.861 158.285h65.04v3.073h-65.04zM310.895 149.835h62.461v7.682h-62.46zM308.442 142.92h64.891v6.147h-64.891zM313.065 134.47h71.404v7.683h-71.404zM316.2 129.093h64.622v4.61H316.2zM311.762 122.179h65.867v6.146h-65.867zM307.105 116.801h65.363v4.61h-65.363zM312.504 106.815h67.562v9.218h-67.562zM316.923 95.291h68.974v10.755h-68.974zM317.224 89.914h62.487v4.609h-62.487zM308.69 81.463h66.928v7.682H308.69zM316.963 73.013h68.972v7.682h-68.972zM307.787 61.49h67.8v10.755h-67.8zM312.324 56.112h66.906v4.61h-66.906zM310.182 41.516h68.32v13.828h-68.32zM310.38 37.675h70.861v3.073H310.38zM311.021 32.297h68.53v4.61h-68.53zM316.652 20.774h66.954v10.755h-66.954zM310.932 13.86h66.619v6.146h-66.619zM315.935 5.41h61.808v7.682h-61.808z"/>
    <text fill="#fff" stroke="#ff2800" font-family="'Arial-BoldMT','Arial',sans-serif" font-size="20" font-weight="700" transform="translate(317.008 316.539) scale(1.53644)">
      2018
    </text>
    <path fill="#ff2800" stroke="#fff" stroke-width="1.53644" d="M412.431 280.432h64.18v4.61h-64.18zM411.173 273.518h62.89v6.146h-62.89zM410.077 265.068h71.173v7.682h-71.173zM410.254 256.617h68.21v7.683h-68.21zM411.723 249.703h61.611v6.146h-61.611zM419.325 245.862h70.705v3.073h-70.705zM413.425 235.875h65.56v9.22h-65.56zM416.867 225.889h65.143v9.218h-65.143zM419.253 215.902h67.658v9.218h-67.658zM418.302 210.524h64.665v4.61h-64.665zM419.463 200.537h63.432v9.219h-63.432zM416.584 196.696h63.707v3.073h-63.707zM415.71 191.319h64.277v4.61H415.71zM415.86 185.941h65.11v4.61h-65.11zM415.959 180.564h70.879v4.609h-70.88zM410.638 176.723h63.341v3.072h-63.341zM409.833 169.809h70.21v6.145h-70.21zM412.23 159.822h63.253v9.218H412.23zM411.426 148.298h62.647v10.756h-62.647zM409.662 138.312h67.48v9.218h-67.48zM410.798 126.788H477.9v10.755h-67.102zM418.027 118.338H482.4v7.682h-64.373zM418.623 112.96h71.335v4.61h-71.335zM418.932 107.583h67.643v4.61h-67.643zM411.179 100.669h65.836v6.146H411.18zM409.535 95.291h70.157v4.61h-70.157zM416.43 88.377h64.585v6.146H416.43zM417.629 83h64.037v4.609H417.63zM412.303 76.086h63.117v6.146h-63.117zM416.135 67.635H485.3v7.683h-69.165zM412.262 63.794h68.737v3.073h-68.737zM418.49 55.344h67.28v7.682h-67.28zM419.34 45.357h67.96v9.219h-67.96zM409.695 38.443h70.103v6.146h-70.103zM413.153 28.456h65.83v9.219h-65.83zM410.132 23.079h70.718v4.609h-70.718zM411.757 16.165h64.585v6.145h-64.585zM419.38 12.323h69.864v3.073H419.38zM418.796-.736h70.69v12.291h-70.69zM415.591-4.577h68.954v3.073h-68.954z"/>
    <text fill="#fff" stroke="#ff2800" font-family="'Arial-BoldMT','Arial',sans-serif" font-size="20" font-weight="700" transform="translate(412.431 316.539) scale(1.53644)">
      2017
    </text>
    <path fill="#ff2800" stroke="#fff" stroke-width="1.53644" d="M520.951 274.286h68.496v10.756h-68.496zM519.376 265.836h69.626v7.682h-69.626zM518.467 258.922h71.048v6.146h-71.048zM515.463 244.326h71.147v13.828h-71.147zM520.86 237.412h63.55v6.146h-63.55zM514.097 232.034h67.456v4.61h-67.456zM517.067 223.584h70.179v7.682h-70.179zM516.144 215.134h66.944v7.682h-66.944zM521.372 209.756h65.612v4.61h-65.612zM519.206 201.306h71.183v7.682h-71.183zM520.383 189.782h62.344v10.755h-62.344zM520.56 179.795h63.009v9.22h-63.01zM512.667 168.272h67.426v10.755h-67.426zM515.416 162.895h65.524v4.609h-65.524zM518.925 157.517h71.034v4.61h-71.034zM517.679 152.14h66.508v4.609h-66.508zM518.006 146.762h67.783v4.61h-67.783zM516.606 139.848h70.586v6.146h-70.586zM512.163 136.007h65.985v3.073h-65.985zM516.961 132.166h65.51v3.073h-65.51zM515.463 128.325h68.22v3.073h-68.22zM514.672 118.338h69.31v9.218h-69.31zM515.505 112.96h70.783v4.61h-70.783zM520.512 106.046h67.69v6.146h-67.69zM522.02 100.669h68.52v4.61h-68.52zM517.52 96.828h64.327V99.9H517.52zM512.731 92.987h62.02v3.072h-62.02zM521.663 89.145h68.8v3.073h-68.8zM513.423 79.159h69.963v9.218h-69.963zM515.624 69.172h63.117v9.218h-63.117zM512.885 60.721h71.262v7.683h-71.262zM520.795 55.344h66.653v4.61h-66.653zM518.556 42.284h67.772v12.292h-67.772zM517.007 36.907h64.245v4.609h-64.245zM517.138 25.383h64.274v10.755h-64.274zM512.393 21.542h61.458v3.073h-61.458zM517.413 13.092h67.317v7.682h-67.317zM518.103 9.25h70.361v3.073h-70.361zM515.996 2.337h67.995v6.145h-67.995zM517.282-4.577h65.485v6.145h-65.485zM515.144-8.418h69.64v3.072h-69.64zM519.364-16.869h70.043v7.682h-70.043zM521.47-20.71h63.59v3.073h-63.59zM516.319-24.551h61.731v3.073h-61.731zM521.35-33.002h61.84v7.683h-61.84zM521.618-39.915h63.653v6.145h-63.653zM516.024-43.757h62.573v3.073h-62.573zM518.9-52.207h62.134v7.682H518.9zM518.814-57.585h63.724v4.61h-63.724zM520.461-64.499h64.686v6.146H520.46z"/>
    <text fill="#fff" stroke="#ff2800" font-family="'Arial-BoldMT','Arial',sans-serif" font-size="20" font-weight="700" transform="translate(520.952 316.539) scale(1.53644)">
      2016
    </text>
    <path fill="#ff2800" stroke="#fff" stroke-width="1.53644" d="M624.225 280.432h68.543v4.61h-68.543zM621.413 271.982h64.466v7.682h-64.466zM615.774 268.14h70.847v3.074h-70.847zM622.347 261.227h62.943v6.146h-62.943zM621.24 254.313h70.041v6.146h-70.04zM617.616 245.862h66.349v7.683h-66.349zM621.376 234.34h68.797v10.754h-68.797zM621.542 230.498h64.255v3.073h-64.255zM623.598 223.584h67.459v6.146h-67.46zM619.087 215.134h61.76v7.682h-61.76zM616.301 209.756h71.566v4.61h-71.566zM620.895 204.378h68.922v4.61h-68.922zM622.452 192.855h68.345v10.755h-68.345zM615.659 169.04h62.93v23.047h-62.93zM614.45 159.053h63.42v9.22h-63.42zM620.66 149.067h70.017v9.218H620.66zM617.341 140.616h62.04v7.682h-62.04zM623.264 122.947h71.637v16.901h-71.637zM615.797 108.351h65.247v13.828h-65.247zM621.327 104.51h64.885v3.073h-64.885zM615.7 97.596h69.074v6.146H615.7zM623.836 92.218h68.885v4.61h-68.885zM615.553 88.377h70.509v3.073h-70.509zM618.21 84.536h68.714v3.073h-68.715zM622.407 77.622h68.485v6.146h-68.485z"/>
    <text fill="#fff" stroke="#ff2800" font-family="'Arial-BoldMT','Arial',sans-serif" font-size="20" font-weight="700" transform="translate(624.226 316.539) scale(1.53644)">
      2015
    </text>
  </g>
</svg>
