<svg viewBox="0 0 150 150" xmlns="http://www.w3.org/2000/svg" fill-rule="evenodd" clip-rule="evenodd" stroke-linejoin="round"><path d="M40.941 149.9l-.208-.008-.059-.009v-.052l.112-.205.028-.046.044-.022h.065l.07.075.023.046.044.095.006.03-.078.073-.047.022zM93.97 139.84l-1.088 1.339-.23.13-.24.099-.264.073-.41.055-.847-.626-1.051-.668-.205-.102-.055-.022-.13-.005-.112.02-.147.06-.312.094-.008-.048.194-.23.276-.31 2.146-1.175.12-.013.055.009 1.727.536.041.035.2.23.34.52zm1.21-1.41l-.22.048-.123-.026-.495-.152.008-.057.028-.039.429-.6.05-.01.063.018.152.113.028.048.103.61-.022.047zm-36.685-6.95l-.12.01-.053-.02-.04-.033-.008-.061.046-.311.025-.122.04-.028.066.004.022.045.077.44-.008.056-.047.02zm54.814-2.412l-.054.015-.137-.014-.966-.149-.063-.015-.15-.08-.068-.076-.144-.21-.045-.09-.061-.125.047-.337.076-.22.112-.02.304.066 1 .265.119.036.047.03.22.276.063.081.074.133.039.1.004.06-.007.057-.043.032-.367.185zM60.898 98.91l-.058.005-.263-.298-.522-.378-.117-.036-.053-.086-.089-.255.02-.042.111-.209.029-.046.057-.006.432-.003.046.028.27.395.255.626.007.062-.003.061-.016.065-.029.046-.077.07zm3.928.399l-.628.369-1.054.819-.259.311-.479-.045-.684-.835-.137-.208-.623-1.354.075-1.803.023-.051.07-.08.816-.303.432-.07.058-.006.065.003.949.253.197.08.08.069.06.081.057.156.401 1.073.888.217.046-.02.06-.006.055.007.465.126.124.04v.057l-.44.684-.113.11-.504.326zm-18.3-32.874l.85.474.784-.045.171-.026.064.017.332.183.045.03.27.244.046.095.178.44.028.107-.003.065-.136.75-.08.239.086.471 1.548 2.666.43.736.09-.05.058-.005.257.048.092.06.038.033.177.253.02.045.12.294.035.099-.022.549-.006.098-.014.06-.033.077-.03.064-.03.046-.144.143-.3.196-.028.014-.035.003-.16-.011-.176.056-.287.125-.05.023-.388.24-.083.064-.069.074-.102.116-.031.05-.337.568-.014.065.124.403.03.042.057.021.103-.027.04-.032.032-.047.06-.17.19-.268.379-.258.127-.083.58-.145.024-.01.036-.002.959-.017.272.023.2.03.047.03.276.365.03.041.014.054.032.295.345 1.5.356.765.041.037.004.058-.073.359-.014.064-.297 1.099-.385.305-.028.011h-.039l-.052-.038-.03-.054-.22-.525-.008-.032-.002-.034.002-.079.018-.067.014-.034.016-.027.105-.117-.11-.242.046-.111.014-.06L53 78.92l-.036-.353-.014-.054-.057-.214-.015-.05-.053-.09-.27-.295-.344-.295-.173-.126-.187-.118-.11-.042-.054.014-.02.055-.078.578.252.184.04.024.21.472.536 1.861.036.163.042.353-.017.028-.02.82-.035.12-.243.268-.215.227-.388.329-.05.022-.047-.016-.03-.042-.038-.099-.152-.137-.05-.03-.062-.017-.307-.052-.142-.019-.71.073-.047.019-.269.152-.08.06-.097.16-.016.13.01.119.045.157.004.061-.004.197-.022.139-.232.71-.123.26-.072.077-.163.12-.467.313-.733.459-.224.04h-.067l-.063-.018-.234-.145-.538-.562-.053-.092-.064-.202-.053-.096-.038-.034-.055-.026-.587-.095-.003-.034-.042-.051-.054-.04-.09-.028-.454-.145-.1-.008-.05.018-.05.035-.036.046-.019.046-.011.048-.001.048-.801.585-1.115.029-.36.071-.024.033-.116.07-.044-.035-.061-.101-.188-.332-.577-1.917-.938-1.721.016-.069-.116-.752-.048-.105-.338-.477-.082-.095-.403-.39-.443-.28-.05-.019-.051.005-.21.095-1.036 1.066-.2.733.238.5.019.05.005.053-.078.424-1.376 1.459-.061.042-.255.126-.155-.023-2.084-.417-.44-.289-.087-.065-.03-.047.005-.105.022-.116-.008-.054-.026-.055-.585-.576-.05-.005-.419-.006-.622-.045-.045-.004-.263-.233-.087-.101-.042-.101-.004-.11.03-.344-.003-.467-.002-.053-.018-.054-.195-.099-.367-.121-.721-.988-.13-.08-.089-.088-.078-.11-.726-1.117-.02-.055-.076-.355 1.202-.56.912-.302 1.098-.232.8-.562-.18-.532-.643-.161-.05-.032-.417-.512-.058-.112-.08-.447.026-.05.791-.417.124-.018.046.022.042.056.692.395 1.758-.654.734-.992.264-.416.164-.375.44-1.08.85-1.374.699-.336-.055.36.033.025 1.389.271.193.004.089-.036.084-.054.077-.068.182-.186.096-.123.283-.608.306-.697.707-.123.583.045.861-.12 1.082-.336.907-.334 1.253.004.204.038zm1.68-.744l-.107.435-.036.055-.035.023-.375-.528-.254-.003-.133-.019-.041-.025.015-.064.175-.105.097-.054.122-.004.42.128.11.053.03.037.013.071zm9.699-1.638l-.618.107-.46-.037-.072-.009-.045-.029-.4-.262-.08-.07-.4-.403-.015-.036-.107-.432-.287-1.54.003-.132.015-.14.045-.172.175-.616.03-.046.07-.079.384-.335.041-.032.283-.215.263.008.12.025.11.046.093.058.255.192.11.107.144.145.065.083.043.094.508 1.873.009.057-.001 1.416-.002.066-.016.06-.03.047-.138.158-.095.043zm1.036-4.41l-.06.005-.063-.017-.037-.033-.696-.88-.024-.049-.588-1.518-.014-.053-.033-.23-.003-.062.006-.057.235-.279.044-.028.055.02.084.063.672.646.351.639.193.875.023.11-.005.132-.049.585-.022.056-.069.074zm-9.597-3.122l.085 1.077.005.062.027.169.029.107.037.1.106.108.136.094.058.083.016.05.124.698.004.628-.028.046-.105.115-.362.29-1.417.805-.427.275-.227-.084-.142-.086-.068-.084-.014-.045.08-.402.015-.056.416-1.364.357-.863.022-.055.002-.066-.023-.055-.04-.033-.052-.022-.525-.098-.057-.004-.055.013-.075.078-.029.054-.045.102-.042.102-.046.12-.073.143-.124.192-.13.161-.174.197-.371.344-.123.09-.101.054-.105.014-.055-.018-.084-.068-.028-.055-.03-.09.003-.132.127-.477.057-.189.545-1.774.077-.073.653-.198.521.133 1.098-.75.27-.155.192-.082.047-.01.063.019.06.079.021.116-.067.416-.01.254zm-.459-2.41l-.055.013-.35-.088-.193-.08.302-.627.056-.084.173-.193.076-.068.224-.181.047-.031.311-.078.07.019.005.057-.515 1.195-.112.123-.039.023zm1.942 3.292l-.267.639-.485-.089-.044-.025-.174-.127-.084-.063-.06-.075-.024-.054-.013-.063-.019-.177-.02-.804.008-.066.044-.194.062-.175 1.109-1.784.115-.101.465-.406.044-.036.865-.71.5-.339.092-.059.308-.18.051-.006.094.064.06.342v.062l-.005.07-.019.068-.048.098-.11.115-.052.04-.085.1-.13.17-.154.218-.058.102-.942 1.631-.588 1.016-.436.798zm2.224-5.025l-.066-.005-.047-.03-.013-.048.058-.097.084-.13.404-.236.052-.014.05.017.036.046.01.045-.003.066-.012.187-.024.056-.086.055-.156.055-.096.024-.191.01zm.96-.548l-.082.157-.052-.022-.032-.033-.11-.367-.013-.053.227-.62.024-.065.28.062.024.05-.009.07-.258.82zm.192-1.124l-.056.023-.069-.018-.039-.033-.084-.37.03-.126.023-.05.121-.177.083-.069h.065l.216.01.049.03-.002.066-.019.064-.189.497-.054.088-.075.065zm-6.828-1.05l-.048.022-.073-.01-.12-.106-.026-.037.2-.314.207-.137.055-.013.049.025.005.054-.09.225-.045.106-.08.148-.034.037zm7.583-.698l-.084.07-.271-.085-.017-.045-.005-.066.022-.047.17-.208.194-.04.313-.005-.254.352-.068.074zm-5.313-1.673l-.294.074-.286-.123-.05-.021-.161-.197-.004-.066.016-.056.157-.133.046-.027.107-.031.078.028.087.055.343.333.024.042.012.053-.028.055-.047.014zm-4.902-1.2l-.17.012-.133-.038-.133-.003-.056.004-.053.022-.04.023-.657.52-.057.091-.134.467-.278-.046-.397-.18-.099-.724.025-.056.145-.145.14-.067 1.726-.41.051-.008.046.03.06.089.084.187.028.103-.003.066-.095.063zm8.266.747l.565.514.522.474.012.115-.004.128-.124.509-.047.115-.377.549-.12.106-.854.484-.285.116-.06.01-.11-.048-.1-.064-.048-.083.065-.092.05-.027.06-.079.058-.101.018-.056.003-.079-.017-.032-.046-.038-.064-.013-.13-.001-.092.037-.825.423-.299.198-2.22.557-.485-.121-.031-.042-.114-.163-.052-.087-.016-.046-.125-.396.003-.065.045-.265.125-.1.097-.027.364.002.062.018.072.067.028.046.047.096.337.17 1.488-.466.348-.137.046-.032.034-.032.013-.078-.008-.058-.02-.046-.047-.03-.061.005-.4.146-.234.114-.1.037-.468.026-.137-.02-.07-.08-.035-.103-.027-.165.035-.133.545-.613.539-.192.102-.045.36-.184.096-.055.08-.06.058-.1.016-.056.043-.19v-.066l-.029-.033-.097-.014-.722.19-.175.11-.072-.014-.046-.026-1.598-1.137-.1-.122.193-.828.03-.045 1.2-.54.41-.123.057-.004.145.059.4.21.099.055.136.217.329.647.022.054.128.47.022.103.965.47.477.121.057.017.085.067zm-6.886-1.648l-.802.32-.064-.022-.057-.207-.025-.17.029-.05.775-.743.37-.269.258-.18.331-.229.046-.022.102-.045.241-.007.073.002.02.05.007.057-.016.056-.314.612-.083.13-.076.072-.68.569-.042.031-.093.045zm4.184-4.255l-.125.004-.157-.074-.27-.244-.014-.054.002-.131.003-.066.019-.06.055-.097.452-.4.081-.06.102.038.192.182.046.091-.012.092-.087.397-.056.18-.035.041-.144.143-.052.018zm-1.404-1.122l-.069-.005-.041-.026-.255-.19-.674-.884-.029-.055.01-.06.342-.396.203-.159.084-.06.319-.053.184-.003.404.203.055.03.07.067.058.097.03.099v.057l-.017.42-.102.488-.021.056-.094.133-.109.106-.182.1-.106.035h-.06zm-9.822-.955l-.071-.007-.339-.068-.128-.03-.164-.068-.072-.069-.004-.066.013-.074.063-.09 1.055-1.311.048.022.164.182.03.043.225.958.012.058-.55.48-.042.032-.24.008zm8.416-1.023l-.71.074-.179-.054.016-.074.074-.055.336-.153.055-.022.049.013.367.113.046.03.015.054-.03.046-.039.028zm5.038-3.184h-.059l-.19-.05-.094-.05-.13-.097-.094-.117-.073-.132-.004-.07.016-.06.027-.043.083-.06.155-.019.261.05.053.026.133.097.03.033.068.14.015.055.003.057-.01.074-.05.093-.042.036-.098.037zm-10.8-1.825l-.075.068-.135.067-.053.012-.056-.014-.21-.16-.043.212-.002 2.69.324.632-.011.065-.109.201-.041.032-.287-.167-.181-.057-.137-.012-.267.072-.192-.005-.058-.019-.144-.15-.035-.1-.035-.165-.02-.112-.107-.81-.006-.067.03-.499.209-2.575.027-.046.091-.061.39-.148.266.112.399.27.109.103.035.052.317.512.006.067zm-.3-1l-.123.011-.253-.058-.053-.031-.46-.343-.08-.064-.113-.296-.03-.105v-.061l.049-.185.024-.055.036-.036.385-.25.058-.012.417.132.201.066.263.09.31.275.014.054-.053.606-.024.06-.312.151-.047.018-.208.034zm10.414 1.976l-.21.05-.077-.01-.047-.03-.016-.045-.071-.317.003-.066.06-.645.087-.568.09-.319.018-.055.314-.566.035-.036.225-.208.18.216.022.054-.003.065-.272 2.167-.046.11-.027.047-.083.068-.182.088zm.725-3.015l-.039.115-.058-.013-.08-.137-.007-.058.01-.205.098-.336.145-.152.043-.032.047.022.013.053v.053l-.172.69zm-1.43-.822l-.04 1.318-.162 1.02-.027.235.002 1.44.056.114 1.861 1.151.103.052.058-.01.412-.185.568-.254.16-.05.063.008.78.304.023.054-.181.738-.026.065-.06.079-1.227 1.227-.116.092-.094.05-.053.014-.124-.004-.113.19-.289.436-.036.04-.325.333-.1.041-.357.11-.16.041-.118.013-.038-.042-.106-.372-.013-.11.016-.057.424-.812.164-.281-.426-.778-.426.776-.034.033-.07-.019-.09-.06-.632-.714-1.188.115-.03-.033-.965-1.719-.04-.1-.187-.494-.014-.053.01-.07.495-.36.04-.028.074.002.116.11.19.24.222.21.085.068.048.021.13.006.036-.037.01-.065-1.71-1.756-.052-.031-.371.352-.011.13.05.352.004.057-.009.074-.04.125-.027.037-.05.022-.06-.014-.344-.19-.521-.307-.088-.056-.076-.072-.084-.135-.012-.053-.006-.124.024-.257-.376-.414-.03-.042-.014-.045-.042-.21.015-.061.371-.645 1.074-1.694.124.006.057.022.067.071.16.203.06.092.045.088.044.153-.007.197.005.057.044.096.743.653.276.084.483-.265-.073-1.249-.165-.518-.006-.044.024-.069.11-.1.561-.523.35.006.211.235.732.97.052.096.082.186.035.1.08.26.011.11zm-8.617-2.602l.886.792.058.08.008.067-.853 1.796-.062.082-.124.011-.555.02-.682-.072-.055-.023-.036-.043.017-.31.044-.26-.18-.122-.511-.32-.375.03-.106.02-.076-.016-.072-.064-.392-.354-.029-.034-.021-.045.007-.075.512-.755.071-.082.098-.039.335.059 1.325.075.036-.045.247-.255.412-.12.073.002zm-.046-.241l-.066-.002-.125-.034.01-.069.063-.086.134-.164.08-.059.14-.061.062-.013.054.014.113.177-.011.074-.043.032-.044.022-.367.169zm-11.169-2.85l-.19.172-.057-.01-.187-.114-.046-.031-.049-.266.03-.05.286.068.143.082.084.067.017.037-.03.045zm13.012.18l-.565.007-.031-.038.027-.2.03-.05.367-.275.046-.018.173-.029.065.002.047.026-.012.073-.06.36-.016.056-.07.086zm2.137-4.903l-.305-.008-.247-.053-.029-.041-.078-.61-.003-.065.007-.061.069-.021.172.064.049.02.338.369.111.176.01.176-.03.055-.064-.001zm5.13-2.005l-.28.584-.427.441-.394.351-.068.4-.004.04.004.032.017.028.028.018.293.146.03.013.037-.005.029-.01.072-.056.376-.068.11-.106.32-.252.041-.032.063.018.095.064.005.053-.136.534-.058.092-.07.078-.463.334-.332.085-.533-.139-.34.355-.096.357-.023.055-.047.032-.994.43-.429.053-.448.073-.163.035.004.057.203.017.823-.078.654-.18.087-.046.065.001.052.021.038.1.222 1.054-.026.046-.271.308-.648.599-.16.299.005.066-.015.06-.565.332-.053.018-.224.039-.059.004-.358-.087-.057-.018-.202-.091-.071-.072-.031-.047-.172-.506-.043-.153-.025-.305-.002-.194.018-.134.09-.212.03-.046.289-.292.033-.033.055-.022.194.017.061.013.056.031.134.025.044-.015.032-.054-.038-.043-.04-.025-.061-.018-.512-.095-.07-.01-.05.009-.043.036-.676.839.237.714.021.054.03.034.11.044.069.076.084.135.036.1.014.045.074.401.014.251-.02.065-.682.808-2.02 1.382-.041.027-.06.008-.047-.021-.043-.044-1.017-1.448-.02-.055-.008-.053v-.198l.017-.069h.059l.118.034.092.07.06.132.144.075.324-.152 1.75-.933-.028-.046-.338-.486-.438-.31-.089-.057-.314-.133h-.065l-.253.09-.064-.01-.047-.021-.317-.173-.282-.364-.004-.053.277-.305.254-.17.004-.255-.25-.563-.197-.853-.004-.11.009-.07.345-.716.346-.575.034-.046.138-.146.078-.068.193.062.056.018.646.346.092.061.014.05-.023.055-.105.03-.152.233.407 1.252.043.083.048.04.022-.065-.014-1.116.587-.223.438.205.063-.184-.302-.535-.136-.49-.053-.326.025-.073.17-.262 1.09-.65.121.005.05.017.034.109.737-.22.087-.05 1.723-1.351.394-.312.157-.132.155-.305.041-.032.046-.027h.06l.052.022.067.054.075.075.084.13.383 1.153-.003.074-.394.989zm13.235 81.77l.147-.058.065.003.242.046.366.034.457-.155.15-.063 1.426-.608 1.149-.045.049.029.327.06.744.13.06-.006.164-.033 1.224-.558.705-.338.238-.031.25-.01.127.005.073.012.948.805.744.652.085.064.178.098.134-.189.049-.06.02-.055-.007-.062-.385-.855-.253-.375-.093-.126-.046-.032-.063-.076-.096-.187-.028-.105-.014-.071.05-.086.067-.076.091-.063.897-.103.062-.023.07-.008.067.023.057.033.036.046.032.056.096.236.015.14.357.172.417.903.13.136.264.212.16.066.19.044.812-.131.206-.16.035-.04.476-.63.017-.06-.034-.036-.07-.015-.052.012-.454.167-.08.055-.03.047-.022.052-.707.147-.07-.01-.117-.051-.088-.051-.652-.538-.09-.121-.382-.792-.057-.122-.826-2.018.012-.135.025-.056.105-.193.202-.336.89-1.43.035-.046.042-.03.303-.188.379-.186.032-.038.014-.057-.027-.048-.033-.032-.056-.024-.132-.025-.14-.008-.248.01-.25.006-.125-.039-.14-.078-.108-.117-.063-.08-.095-.205-.023-.083-.031-.172-.012-.127.004-.136.111-1.702.01-.057.05-.107.07-.072.14-.075.868-.36.35-.751.622-1.339.172-.905.068-1.258-1.07 1.033-.081.06-2.035 1.032-.57-.233-.104-.051-.07-.077-1.28-2.265-.245-.517-.022-.11.002-.118-.169-.903-.278-.491-.234-.398-.277-.37-.283-.36-.49-.653-.142-.277-.037-.098.01-.056.66-1.976 1.37-2.677.372-.945.1-.124.835-.799.049-.029.152-.034.56-.108.125-.005.047.023.04.04.013.063.039.027.38.156.063.002.237-.032.702-.162.014-.061.027-.332-.07-.076-.091-.06-.087-.018-.118.069-.046.016-.68.123-.06-.002-1.898-.163-.143-.023-.127-.03-.488-.21-1.134-.112-.094.299-.01.07-.368 1.435-.117-.04-.541-.078-.066-.002-1.072.464-.55.665-.785.562-.105.03-.131-.006-1.053-.086-.36-.126-1.867-1.398-.038-.041-.197-.308-.039-.09-.007-.061.03-.143v-.061l-.012-.054-.031-.04-.073-.013-.046.024-.247.356-.022.047-.039.12-.004.136.005.053.127.55.425.883.078.95.005.062-.032.125-.079.172-.089.118-.101.052-.105.012-.135-.028-.84-.389-.085-.066-.434-.57-.016-.048-.003-.124-.013-.053-.312-.467-.73-.346-.523-.374-.487-.522-.068-.083-.078-.061-.1-.05-.238-.08-.392.242-.25.183-.077.07-.07.075-.255.414-.012.074.014.066.115.42.253.816.095.25.08.07.051.03.072.07.053.095.015.044.07.81-.028.056-.052.006-.519-.24-.087-.067-.075-.074-.061-.074-.03-.054-.064-.267-.019-.11v-.057l.022-.056.07-.084.04-.111-.036-.357-.026-.046-.374-.617-.258-.313-.336-.393-.237-.264-.091-.124-.055-.086-.098-.177-.082-.194-.22-.548-.049-.152-.02-.12-.033-.216.001-.205.004-.049.114-.8.048-.18.116-.125.092-.039.437-.166.48-.33.014-.074.427-1.242.024-.056.115-.098.24-.192.37-.35.634-.604.027-.047.019-.06.182-.674.113-.647.015-.135.027-.046.837-1.321.035-.042.165-.123.14-.067.286-.124.232-.032.054-.014.087-.053.034-.037.248-.658.012-.135-.063-.275-.014-.053-.278-.747-.207-.546-.022-.054-.052-.086-.03-.04-.078-.07-.187-.116-.343-.19-.38-.289-.396-.443-.124-.16-.242-.137-.1-.12-.003-.122.519-3.562.015-.06.035-.042.467-.141.238-.04.042.01.027.018.06.072.268.029.327.202.063.016 1.187.26.414.062.367-.02-.062-.083-.103-.053-1.098-.316-1.286-.61-.298.036-.382-.18-.064-.719.093-.604.132-.244.178-.413-.345.1-.155.533-.228 1.405-.15.309-.158.427-.343.827-.163.21-.055.019h-.056l-.182-.05-.117-.05-.711-.569-.534-.444-.296.096-.182.307-.07.433.161.477.037.174-.02.069-.034.042-.06.005-.665-.384-.093-.054-.03-.055-.235-.699-.011-.058.002-.065.018-.332.349-1.184.006-.045.01-.034.267-.409.073-.108.694-1.15.039-.042 1.17-.986.9-.68.25-.248.225-.224.049-.093-.019-.054-.06.006-.953.597-1.609 1.408-.307.27-.187.177-.273.344-.176.223-.109.212-.215.315-.16.142-.33.372-.062.005-.056-.008-.165-.067-.047-.03-.021-.045.01 1.597L55.75 59l-.228.204-.384.418-.03.047-.07.285-.035.037-.122.242-.181.391-.846 3.555.161.264.02.046.12.486.006.057-.084.144-.121.175-.308.357-.27.153-1.283.127-.132-.004-.118-.035-.1-.055-.07-.08-.014-.058-.011-.119.004-.754.01-.206.02-.2.018-.065.058-.092.278-.314.298-.199.062-.079.024-.055.031-.134.056-1.04.224-1.147.366-1.129.645-1.487-.035-.024-.292-.358-.194-.364-.014-.054.063-1.264-.002-.037.005-.155.03-.193.04-.053.07-.058.089-.084.23-.634.505-.685.03-.047.094-.349-.048-.016-.059.005-.134.074-.259.167-.338.561-.016.028-.068.111-.021.025-.035.003-.029-.018-.014-.027.01-.223.004-.034.04-.097.344-.693.095-.134.299-.366.372-.558.42-.753.025-.065.078-.227.002-.066-.04-.028-.055.018-.086.051-.247.19-.14.14-.21-.01.107-1.463.012-.13.265-.987.046-.111.418-.63.013-.131.014-.06.033-.056.763-.469.085-.097.07-.062h.777l.068.018.126.098.588-.07.05.016.13.004.092-.042.082-.061.077-.079.537-.546.14-.158.122-.186.386-.757.023-.052-.025-.036-.058.005-.043.037-.063.08-.081.148-.085.236-.116.256-.704.76-.112.116-.1.029-.128.01-.055-.008-1.132-.438-.26-.085.23-.656.112.105.173.003.04-.003.06-.023.72-.473.036-.037.027-.046.011-.07-.065-.004-.514-.02-.03.02-.064.064-.101.064-.053.031-.06.023-.044-.003-.062-.03-.143-.152.044-.094-.076-.332.665-1.12.68-.835.614-.717.397-.489.03-.046.094-.267.018-.06-.313.257-.318.34-.422.497-1.195 1.21-1.86 1.795-.267.241-.084.069-.677.357-.095-.247-.062-.075-.78-.44-.308-.088-.485-.21-.095-.064-.288-.222-.098-.117-.42-.58-.088-.133-.03-.099.007-.061.034-.125.07-.083.075-.064.048-.028.113-.022.8-.025 1.612-.3.434.07.314-.005.49-.025.099-.037-.013-.058-.036-.037-1.603-.386-.197-.018-.066.013-.086.042-.123.092-.299.135-.147.145-.06.022-.614.053-2.342-.266-.147-.082-.122-.171-.046-.091-.024-.165.004-.074.007-.065.023-.051.365-.372.034-.033.442-.089 1.515-.243.116-.014.041.03.067.075.282.319.307.241.121.022.07-.074.454-.635-.054-.088-.281-.164-.084-.072-.051-.087-.016-.045.002-.074.012-.065.035-.046.04-.024.562-.12.283-.027.07.014.1.05.13.006.485-.366.038-.064-.017-.045-.076-.075-.55-.314-.067-.01-.18.01-.442.079-.412.067-.115.005-.07-.019-.253-.123-.038-.033.916-1.717.073-.078.141-.073.105-.029.259.072.107-.016h.113l.025.02.014.025.029.097.05.111.205.134.209.163.086.063.102.06.046.02.118-.013.44-.08.114-.028.248-.097.126-.062.033-.037-.013-.054h-.064l-.157.055-.08.061-.111.015-.407.051-.13-.013-.186-.122-.965-.914-.086-.068-.023-.04-.013-.059.009-.06.033-.134.073-.153.062-.08.436-.438.28.052.335-.056.032-.003.208.072.064.068.035.084.285.113.15.089.154.072.063.017.13.004 1.03-.213-.006-.062-.023-.045-.032-.033-.108-.06-.194-.021-.117.018-.213.056-.581-.104-.72-.673-.053-.035-.017-.028-.01-.032.008-.044.101-1.108.29-.056.041-.042.417-.164.091-.025.028.012.043.124.017.03.365.146.108.126.069.061.187.113.179.065.056-.023.145-.144.02-.047-.877-.767-.49-.138-.185-.745.18-.01.037-.007.477-.39.25-.168.268-.236.036-.047.058-.092.053-.26.007-.074-.014-.045-.062-.026-.04.024-.367.274-1.126.407-1.034.36-.16.04-.072-.009-.085-.063-.221-.287-.016-.046-.248-1.391-.04-.27-.025-.182.021-.196.018-.07.21-.8.016-.061.108-.326.142-.078.053-.018.056.009.274.168.206.29-.005.132.757.601.04.025.067-.005.21-.24.755-.006.165-.042.03-.046-.065-.206-.03-.033-.112-.051-.913-.062-.089.056-.026.037-.053.014-.055-.021-.04-.038-.167-.191-.88-1.3-.005-.057.146-2.767.012-.07.143-.481.04-.032.28-.135.103-.036.32-.009.152.27.046.037.04.045.018.03.005.035.093.837.018.088.158.204.212.155h.063l.042-.028.223-.779.016-.06.012-.136-.015-.053-.112-.17-.033-.042-.193-.11-.063-.196-.066-.178-.003-.037.009-.089.01-.04.006-.217.085-.139.068-.079.151-.139 1.215 1.103.233-.607.036-.038.048-.023.74-.242.99.378.723.54.12.165.068.14.054-.268-.684-1.31-.06-.078-.047-.029-.482-.289-1.065-1.015-.146-.193-.233-.397-.045-.095-.006-.058.016-.064.047-.111.057-.093.04-.037.101-.029.062.017.086.063.19.179.093.124.425.212.071.013.114-.037.073-.052.037-.046.033-.042.018-.056.085-.586.027-.494-.135-.013-.054-.035-.726-1.493-.014-.106.002-.066.03-.06.034-.032.048-.024.127.026.04.029 1.336.202 1.105-.152-.03-.041-.053-.03-.348-.314-.28-.614-.058-.394.062-.233.629-2.224.968-1.758.054-.023 1.832.442.032.033.507.707.176.549-.22.215-.144.238-.394.658-.025.069-.01.056.064.017.13-.085.638-.596.557-.523.05-.103.016-.06.002-.197-.021-.116.017-.069.044-.107.058-.09.087-.051.11-.021.073.013.4.143.245.118.281.167.067.078.022.111 1.24.157 1.632-.266 1.457.016.453-.007.522-.084.044-.024.425-.369.138-.152.042-.028.41-.22.692-.01.18.209 1.466.263.07.011.036-.038.022-.056.061-.173.009-.057-.03-.04-.148-.146.177-.515 1.449.224 1.235.068.047.032.03.04.014.154-.43 2.807-.043.113-.44 1.02-.107.19-.697.945-.052.055-1.081.398-.132-.005-.053.016-.038.03-.152.138-.33.322-.191.256-.04.121-.085.203-.059.094-.183.265-.24.272-.037.037-.436.352-1.015.741-1.382 1.044-1.315 1.039-.14.366.151.27.004.131-.224.53-.78.214-.111.013-1.016-.355-.948-.44-.061-.082-.095-.057-.117-.032.003.123.282.566.068.07.394.207.117.04 1.105.35.885.212.975.152.438-.105.206-.065.077-.071.063-.09.077-.23.057-.093.078-.076.08-.053.116-.013.11.044.012.119-.045.116-.342.556-.065.089-.378.506-.695.781-.069.071-.147.152-.08.062-.095.044-.105.03-.088-.082-.075-.025-.012-.063.023-.076.038-.05.005-.155-.02-.106-.096-.057-.46.063-.106.03-1.709.7-1.065 1.096-.185.411.069.074.107-.03.32-.251.307-.27.121-.17.157-.136.468-.407.087-.062.187-.079.31-.086.927.138.271.368-.577.675-.6.538-.285.403-.168.316-.11.24.042.108.079.07.1.052.14.011.15-.05.177-.106 1.034-.86.028-.047 2.443-.966.979-.258-.023.047-.007.07.031.036.118.03.225-.048.045-.015.61-.39.14-.157.027-.038.057-.103.032-.113-.007-.057-.019-.053-.01-.062.012-.06.083-.072 1.255-.175.424-.025.053.028.024.05.03.096.12.167.123.104.188.112.832.342.355.107.326.062.059-.007.107-.036.282-.132.188-.09.214-.14.163-.113.22-.151.38.028.522.066.07.01 1.143.248.636.147.502.138.552.065.371.038.068.001 1.738-.002.112-.02.048-.03.232-.29.076-.072.096-.034.375-.025.448.095.776.265.094.115.482.781.313.678.33 1.156.058.232v.517l-.71.924-.89 1.035-.114.191-.051.1-.673 1.492-.068.227-.039.213-.088.616.01.119.053.15-.24 1.007-.65 1.088-.207.404-.056.196-.014.263.006.053.057.154.036.162-.01.066-.072.244-.23.543-.846 1.07-.076.078-.209.145-.366.194-.222.2-.558.672.126.3.129-.048-.003.126-.009.07-.368 1.143-.347.553-.072.077-.144.15-.792.634-.708.513-1.528.354-.555.107-.678.006-.072-.01-.063-.003-.16.043-.094.05-1.765 1.38.11.184.108-.027.525-.154.047-.02 1.702-.798.564-.435.117-.102.046-.02.114-.019.143.017.125.034.472.158.055.023.039.097.038.224.008.062-.016.061-.03.056-.061.165-.06.362.012.171.073.252.03.04.25.195.049.023.303.109.065.014.168-.009.252.028.055.019.219.093.04.027.046.036.407.465.03.04.037.102-.046.109-.035.038-.777.748-.042.03-.045.024-.93.384-.282.045-.126.006-.109-.047-.093-.064-.148-.135-.045-.032-.065-.024-.252-.055-.131-.008-.223.042-.171.113-1.437 1.236-.064.085-.083.23-.016.056-.014.066-1.678.912-.048.025-.41.165-.058.007-.09-.034-.275-.115-.487-.258-.64-.326-.096-.026-1.205-.073-.155.012.075.392.013.053.033.033.473.307.038.024.138.018 1.678.269 1.751.38 1.458.418.18.063.127.017.311-.083.742-.294.094-.045.127-.084.035-.03.1-.133.275-.51-.019-.11.029-.055.284-.295.122-.088.231-.047.106-.015 1.099.054.228.085.264.185.852.659 1.104.746 1.003.623 1.14.537.442.3.058.216.038.097.062.119.34.539.07.176.11.234.179.375.056.08 1.065 1.502.277.367.037.035.064.018.06-.008.062-.087.423.193.504.312.46.359.036.035.455 1.506.007.061.056.976-.02.14-.039.118-.05.105-.07.078-.059.092.007.06.282 1.495.392 1.942.048.228.263.947.037.11.607 1.317.281.364.145.767.171.89.366 1.576.063.123 1.198 1.797.947.514.16.065 1.535.673 2.851 1.41.4.466.054.086.54 1.064.2.418.135.283.268.934-.007.056.013.053.102.16 1.113 1.267.576.351.452.157.323.14.32.206.04.035.031.073-.058.093-.285.126-.218.047-.049.022-.18.099-.118.102-.262.427-.053.101-.041.198-.022.144-.002.066.012.117.027.105.397 1.36.037.1.378.804.14.208.126.169.431.57.388.537.705.987.03.043.594.89.143.283.08.195.042.157.006.06-.018.141-.045.11-.03.049-.029.044-.206.235-.05.023.01-.058.05-.1.036-.04.114-.19.017-.062.01-.07-.006-.061-.075-.134-.203-.168-.189-.115-.204-.101-.22-.089-.135-.01-.119.01-.054.014-.103.05-.322.161-.158.042-.184.01-.07-.011-.063-.017-.191-.11-.225-.151-.116-.103-.282-.425-.566-.724-.17-.124-.216-.09-.2-.015-.59.102-.22.065-.387.145-1.179.189-.109-.048-.078-.07-.081-.126-.078-.078-.184-.047-.13-.003-.117.013-.206.063-.184.097-.085.053-.33.255.044.104.197.109 1.618.004.138-.02.438-.155.63-.192.789-.097.072.013.094.064.221.278.217.356.106.23.074.14.148.212.85.759.155.138 1.21.98.553.358.354.178.055.007.106-.028.066.017.207.228.465.669.18.272.117.295.074.2.147.334.68 1.717.014.052.142.719.027.17.018.244-.007.192-.02.145-.106.688-.045.11-.07.08-.047.022-.445.254-.679.623-.284.302-1.318 1.467-.28.545-.017.052.062.03.204-.054.28-.135.106-.028.06-.006.107.02.343.187.243.136.093.06.078.068.063.082.043.091.106.177.302.48.156.137.046.03.05.012 1.143.214.147-.02.45-.656.029-.049.023-.053.034-.127.01-.136.043-.285.017-.066.391-1.004.05-.101.435-.438.047-.023.06-.015 1.088-.17 2 .08.048.007.062.03.093.115.086.072.04.011.29.014.262.006.237-.025.104-.029 1.696.166.94.149.227.084.449.172.196.107.2.133.38.284.357.306.342.254.133.091.132.092 1.12.81.116.104.184.246.112.175.166.321.051.15.15.458.247.768.028.108.005.057.075 1.374.048 1.15-.157.705.037.287-.054.181-.361.885-.461 2.077-.015.201-.022.141-.301 1.395-.023.054-.058.094-1.779 1.736-.526.66-.05.014-.114-.236-.378-.602-.067-.085-.094-.063-.931-.493-.054.006-.042.036-.015.057.515 1.066.712 1.072.056.002.05.02.046.03.02.12-.078.235-.057.085-.133.17-.4.488-.144.145-.082.064-.175.105-.473.216-.2.063-.225.05-.374.012-.125-.031-.031-.043-.373-.543-.112-.237-.075.029-.404.273-.082.063-.63.493-1.328.772-.193.075-.043.044.007.053.579.373.054-.01.958-.335.093-.05.069-.072.184-.227.02-.019.03-.016.137-.085.07.003.055.025.08.063.075.137.125 1.745-.009.066-.031.058-.386.403-.332.327-.523.416-.123.09-.18.096-.1.038-.12.012-.85-.149-.253-.068-.06.006-1.791.568-.13.082-.661.759.04.032.062.022.188-.004.31-.08.083-.059.035-.04.073-.154.039-.118.029-.049.075-.067.1-.037.46-.067.125-.002.386-.01.072.008 1.006.237.102.05.083.063.04.034.053.09.015.052.004.056-.015.066-.023.053-.035.04-.1.038-.177.017-.065-.003-.182-.052-.208-.025-.046.023-.795.467-.015.048.023.048.062.081.137.15.039.034.055.02.315.045.832.067 1.99.523.06.002.69-.098.174-.04.127-.069.203-.163.189-.088.097-.03.068-.01 1.198-.181 1.898-.208.442.874-.094 2.043-.015.201-.02.14-.072.247-.074.155-.202.295-.104.117-.043.032-.888.422-.302.023-.112.02-1.178.448-.13.082-.401.313-.15.14-.278.308-.064.085-.079.146-.067.167-.056.18-.026.132-.013.135.029.361.055.208-1.172.132-.426-.127-.207-.021-.119.012-.634.495-.102.116-.225.297-.07.076-.128.082-.938.361-.679.168-.455.075-.217.048-.3.11-.282.133-.222.126-.412.448-.106.115-.092.132-.096.211-.057.092-.073.072-.097.045-.116.01-.144-.018-.125-.033-.922-.263-.25-.126-.416-.198-1.514-.44-.436-.12-.189-.046-.338-.066-.152-.01-.487.009-3.205.515-.6.13-.376.097-.36.115-.345.127-.218.206.014.095v.057l-.024.126-.072.092-.041.026-.048.022-.11.014-.061-.03-1.007-.638-.07-.066-.005-.06.022-.053.141-.157.039-.03.213-.061.033-.04.022-.048-.011-.06-.073-.066-.548-.478-.03-.006-.091-.015-1.546-.08-.6.026-.047.022-.027.048.03.047.124.088.285.3.016.049.005.056-.016.057-.097.226-.023.048-.033.039-.041.034-.048.018-.052.013-1.838-.224-.765.318-1.847.717-.213-.089-.492-.126-.087-.013-.12-.01-.17.028-1.15.205-1.177.146-.75-.046-.11-.045-.069-.07-.021-.053-.021-.11-.041-.026-.058.003-.24.284-.026.039-.116.194-.02.047.016.053 1.043.39.113.106.043-.046.028-.019.033.011.015.027.008.031.145.378-.236.636-.042.03-.059.013-.833.144-.061.003-.64-.35-.118-.097-.107-.058-.523-.153-1.903-.28h-.058l-.374.096-.158.131-.186.436-.034.13.015.096.07.14.334.243-.103.283-.206-.116-.026-.202-.353-.538-.672-.588-.974-.668-.38-.222-.203-.105-.496-.253-.511-.196-.405-.137-.187-.049-.24-.041-.178.017-.055.02-.145.11-.154.16-.188.095-1.167.187-.762.033-.058.007-.683.19-.1.037-1.599.82-.263.165-.222.218-.066.08-.312.599-.067.163-.565 1.507-.026.199-1.098 3.004-.239.16-.325.153-.102.044h-.123l-.607-.117-.136-.036-.102-.052-.195-.165-.062-.08-.05-.094-.061-.216-.229-.453-.023-.045-.605-.491-.06-.033-.05-.02-.067-.002-.174.018-.1.035-.198.074-.07.075-.027.042-.09.057-.053.02-.056.002-.191-.057-.084-.069-.483-.496-.517-.65-.09-.122-2.067.118-.465.142-.086.057-.075.075-.104.112-.028.042-.134.071-.167.044-.282.038-.33-.013-1.022-.075-.333-.053-.854.18-1.019 1.192-.99.545-.979.29-.141.493-.207.841.04.037.023.045.125.286.008.057-.027.134-.045.11-.066.074-.22.218-.755.242-.032.037-.163.29-.05.097-.14.322-.059-.007-.037-.037-.248-.26-.083-.127-.167-.32-.011-.052.006-.056.068-.161.007-.074-.019-.11-.209-.479-.122-.16-.423-.37-1.35-.615-.118-.038-.07-.009-.118.01-.106.027-.201.079-.072.069-.046.11-.01.069.025.237-.001.065-.025.133-.051.102-.09.115-.076.07-.085.05-.16.042-.729.125-.06.009-.069-.014-.11-.042-.094-.059-.241-.2-.045-.094-.007-.057.004-.065.148-.961.166-.364.083-.06 1.472-.653.357-.116.162-.032.121.038.046.03.045.093.021.11.02.046.057.025.234.076h.068l.05-.014 1.68-1.147 1.207-1.001.039-.037 1.053-1.148.032-.042.053-.097.228-.54.008-.056-.027-.106-.106-.302.009-.07.212-.615.076-.07 1.007-.446.184-.016.236.014.733-.124.158-.044.045-.024.103-.112.11-.194.121-.412.101-.403.443-.303.514-.395.907-.867.07-.08.05-.097.054-.268.03-.216.01-.134.03-.465v-.066l-.013-.053.098-1.01.222-1.292.04-.08.064-.006.422.048.431.087.063.016.116.106.344.2.183.035.182-.008.15-.067.215-.129.643-.588.032-.029.043-.046.238-.333.03-.055-.088-.576-.04-1.192.034-.042.18-.096.1-.034.818-.18.445-.007.859-.01.998-.07.91-.198.904.18.664.214.134.027.216-.048.094-.045.13-.082.091-.04.538.142.065.02.598.243.046.029.032.031.103.191.064.08.077.06.111.048.071.011.195.007.68.023 2.707-.306.205-.679-.035-.1-.007-.057.014-.205.077-.538.491-1.05 1.082-1.063.825-.676 1.176-1.143.141-.232.873-1.21.816-1.036.124-.09.085-.041.213-.057.22-.038.05-.022.092-.045.072-.078.049-.099.012-.074-.007-.057-.016-.052-.052-.089-.037-.035-.057-.023-.632.453-1.178 1.055-.503.516-.36.45-.099.123-.243.27-.158.13-1.317.528-.443.089-.256.006-.35-.04-.114-.035-.543.241-.942.526-.065.076-.06.094-.246.398-.092.246.015.057.003.057-.01.135-.033.125-.023.056-.026.047-.105.114-.089.054-.82.209-.053.011-.713-.007-.131-.004-.431-.033-.128-.017-.339-.078-.365-.096-.526-.141-.17-.128L68.343 127l-.73-.836-.037-.128-.065-.177-.188-.37-.495-.831-.045-.028-1.075.08-.157.042-2.34.95-.025.121-.034.038-.058.006-.056-.02-.245-.139-.331-.264-.117-.726.003-.065.022-.056.409-.268.185-.061.196.11.298.079.06.007.117-.012.458-.149.383-.17.031-.038.101-.205.019-.06-.008-.062-.047-.08-.043-.042-1.197-.085-.633.005-1.652-1.028-1.35-.021-.53.054-.171.026-.212.054-.087.052-.069.08-.041.115-.019.261-.053.355-.192.247-.047.02-.697.228-.062-.017-.047-.029-.117-.102-.197-.081-.065-.017-.057.005-.215.058-.045.02-.243.182-.527.485-.614-.228-.354-.182-.084-.062.336-.74.5-.083.658-.295.107-.033.334-.2-.051-.15-.148-.385-.066.215-.012.126-.022.055-.072.08-.048.027-.091.039-.89.06-.066.011-.528-.062-1.224-.136-.353-.244-.172-.124.865-.449.1-.038.057-.005.205.017.117-.015.045-.023.035-.038.031-.124.004-.066-.082-.765-.007-.061-.031-.164-.016-.053-.047-.09-.082-.066-.433-.197-.064-.017-.242-.024-.442-.027.234-.706 1.369-.598.05-.024.16-.209.021-.05.046-.273 2.263-.148.119-.015.04-.029.624-.708.09-.13.14-.263.1-.204.144-.14.53-.243.22-.05.056-.005.139.016.347.058.61.045.268-.074.047-.02 2.024-1.23.6-.387.385-.414.517-.667.127-.221.345-.727.037-.12.035-.126.368-1.368v-.319l-.155-.75-.383-.729-.022-.05-.008-.056.016-.065.217-.641.55-1.011-.09-.122-.604-.87-.136-.282-.02-.05-.008-.057.004-.065.172-1.102.016-.07.02-.047.066-.093.082-.062-.131-.32-.946-.053-.73.113-.066.014-.943.264-.26.18-.361.257-.239.39-.4.552-1.801.088-.125.002-.063-.017-.078-.066-.043-.056.097-.277.116-.19.196-.252.714-.762.323-.333.323-.214.32-.062.12-.02.133-.077.205-.15.43-.36.97-.834.069-.075.029-.047.044-.111.069-.33.01-.073.165-.696 1.33-1.415.42-.286zm14.049-86.274l-.174.026-.07-.011-.078-.068-.1-.117-.074-.133-.433-1.081.029-.043.04-.034.157-.131.046-.02.244-.028.479-.044.138.013.04.023.061.08.067.125.007.061-.342 1.352-.037.03zm-2.537-.765l-.47-.015-.056-.01-.04-.033-1.01-1.506-.014-.053.003-.065.136-.394.051-.1.12-.1.402-.14.111-.004.812.662.037.036.106.174.602 1.123.012.053-.025.222-.04.03-.154.052-.168.025-.415.043zm3.653-2.663l.29.537-.576.598-.357-.237-.8-.75-.31-.017-.4.053-.438.11-.077.071-.002.066-.43.118-.132.009-.054-.02-.862-.575-.079-.068-.253-.258-.111-.42-.015-.053-.032-.23.002-.065.187-1.447.01-.056.276-.297.327-.156.046-.02.271-.066.163-.033.133.004.053.023.948.433.03.04.58.796.024.05-.01.17.368.917.76.38.47.393zm1.005-3.826l-.04.183-.031-.04-.014-.053-.013-.119.014-.2.017-.066.052-.1.765-1.08.304-.19.171-.026.968-.115.058-.003.04.019.017.039.02.11.05.32v.053l-.861.529-.608.03-.052-.002-.351.088-.037.04-.47.583zm-1.639-1.61l.312.438-.035.292-.206.323.046-.367.002-.065-.03-.04-.47-.408-.174-.07-.056-.006-.052.011-.036.039.016.053-.026.135-.094.133-.035.038-.056.007-.032-.04-.191-.343-.345-.627-.014-.053-.005-.062.038.002.182.04L79.3 4.1l.056.071zm12.91-18.618l.071.315.954.266.951.119.033.044-.005.065-.221 1.29-.275 1.293-.494.274-.012-.057-.165-.123-.063-.017-.03.048-.014.07.02.118.096.398.039.087.18.477.244.678.004.062-.024.056-.142.193-.05-.018-.079-.07-.058.004-.131.157-.198.384-.07 1.263-.322 2.522-.018.061-.049.114-.303-.102-.511-.54-.048-.167.003-.065.371-1.424.013-.048.03-.07.03-.048.048-.022.04.036.026-.035.018-.061.3-1.271.043-.21.016-.14.007-.13-.01-.106-.178-1.404-.049-.337-.874-.231-.054.013-.03.047.03.04.176.193.187.12.08.328-.042.257-.712.647-.04-.022-.287-.242-.231-.216-.054-.088-.004-.061.01-.057.054-.105-.54-.235-.459-.145-.056-.022-.075-.075-.075-.136-.027-.11-.112-.525.002-.066.012-.07.193-.177.091-.052.212-.063.247-.01.054.025.899-.128.226-.055.147-.043.635-.29.2-.256-.967-1.644-.437-.148-.399-.095-.037.04-.051-.001-.348-.02-.015-.04.014-.074.136-.414.361-.438 1.021-1.081.043-.03.843-.464.047.031.012.057.05.28-.075 1.922zm2.07-.07l-.585.162-.177-.013-.097-.049-.021-.048-.212-.547-.092-1.066-.008-.123.018-.327.015-.14.018-.065.521-1.402.088-.065.047-.022.06-.004.214.013.465.096.043.075.066 1.013-.002.066-.27 2.076-.012.07-.032.187-.017.066-.03.048zm1.62-3.038l-.118.245-.776-.016-.178-.127-.054-.087.045-.367.16-1.306.427-.752L95.5-20l.555.06.257.147.038.035.075.175.007.06-.048.324-.427 1.644z" fill="#fff" fill-rule="nonzero" stroke="#ff2800" stroke-width="1.33788"/><circle cx="411.181" cy="424.982" r="5" fill="#fff" stroke="#ff2800" stroke-width="2" stroke-linejoin="miter" transform="matrix(.33447 0 0 .33447 -65.979 -43.068)"/><circle cx="393.915" cy="501.232" r="5" fill="#fff" stroke="#ff2800" stroke-width="2" stroke-linejoin="miter" transform="matrix(.33447 0 0 .33447 -65.979 -43.068)"/><circle cx="505.864" cy="508.154" r="5" fill="#fff" stroke="#ff2800" stroke-width="2" stroke-linejoin="miter" transform="matrix(.33447 0 0 .33447 -65.979 -43.068)"/><circle cx="433.378" cy="510.375" r="5" fill="#fff" stroke="#ff2800" stroke-width="2" stroke-linejoin="miter" transform="matrix(.33447 0 0 .33447 -65.979 -43.068)"/></svg>